<svg xmlns="http://www.w3.org/2000/svg" width="240" height="42" xml:space="preserve"><g fill-rule="evenodd" clip-rule="evenodd" fill="#FFF"><path d="M56.973 12.073V9.712c.078-.337.167-.592.421-.592.167-.083.255-.083.255-.083h.167c0-.083-.088-.083-.255-.083h-2.272c-.087 0-.166 0-.166.083h.077c.087 0 .342 0 .421.083.343.088.421.255.421.592.088.338.088.671.088 2.361v.249c0 .083-.088.083-.088.083h-4.798V9.712c0-.337.079-.592.421-.592.078-.083.166-.083.254-.083h.079c0-.083-.079-.083-.167-.083H49.56c-.176 0-.176 0-.176.083h.088c.088 0 .254 0 .333.083.42.088.509.255.509.592V16.454c-.088.333-.167.588-.333.671h-.343c-.079 0-.079 0-.079.083H52.253c0-.083 0-.083-.088-.083h-.499c-.343-.083-.343-.338-.421-.671v-3.623h4.798s.088 0 .088.083v1.092c0 1.097 0 2.022-.088 2.448-.078.333-.078.588-.333.671h-.343c-.079 0-.079 0-.079.083h2.782c0-.083 0-.083-.088-.083h-.509c-.333-.083-.422-.338-.422-.671-.078-.426-.078-1.351-.078-2.448v-1.933zM61.938 13.081c0 1.939 1.272 4.299 4.299 4.299 2.702 0 4.465-2.021 4.465-4.465 0-2.531-1.851-4.132-4.376-4.132-3.037-.001-4.388 2.53-4.388 4.298zm1.096-.25c0-2.448 1.352-3.623 3.203-3.623 1.772 0 3.378 1.43 3.378 4.044 0 3.115-2.027 3.707-3.036 3.707-2.027-.001-3.545-1.601-3.545-4.128zM76.44 17.379c.587 0 1.174-.171 1.596-.504.754-.509.931-1.351.931-1.772 0-.842-.255-1.518-1.606-2.526l-.255-.255c-1.097-.842-1.342-1.18-1.342-1.851 0-.759.588-1.263 1.342-1.263 1.019 0 1.263.504 1.351.587.088.083.167.421.167.587 0 .088 0 .088.088.088 0 0 .079-.088.079-.255v-1.18c0-.083 0-.083-.079-.083-.088 0-.167 0-.342-.083-.333 0-.588-.088-1.087-.088C75.93 8.782 75 9.628 75 10.804c0 .759.255 1.435 1.44 2.36l.499.421c.93.759 1.263 1.18 1.263 1.939 0 .676-.5 1.434-1.518 1.434-.754 0-1.518-.338-1.684-1.097v-.42c0-.083 0-.083-.078-.083-.088 0-.088 0-.088.167 0 .171-.088.592-.088 1.096 0 .338.088.338.176.421.499.254 1.008.337 1.518.337zM84.273 14.006v2.448c-.088.333-.166.588-.342.671h-.333c-.088 0-.088 0-.088.083H86.213c0-.083 0-.083-.088-.083h-.509c-.333-.083-.333-.338-.421-.671V9.541c0-.083 0-.167.087-.25h.421c.254 0 .93-.083 1.518.504s.588 1.347.588 1.685c0 1.013-.754 1.772-1.851 1.772-.254 0-.342 0-.342.167h.176c0 .083.166.083.244.083 1.518 0 2.703-1.097 2.703-2.609 0-.593-.342-1.097-.587-1.352-.176-.167-.676-.588-2.027-.588H83.51c-.167 0-.167 0-.167.083h.088c.079 0 .255 0 .333.083.421.088.509.255.509.592v4.295zM94.555 12.156V9.712c.079-.337.167-.592.421-.592.167-.083.245-.083.333-.083h.088c0-.083-.088-.083-.176-.083h-2.184c-.088 0-.176 0-.176.083h.088c.088 0 .254 0 .333.083.254 0 .342.255.421.592v4.382c0 1.009 0 1.934-.079 2.36 0 .333-.088.588-.342.671h-.333s-.088 0-.088.083h2.781c0-.083 0-.083-.078-.083h-.509c-.333-.083-.421-.338-.421-.671-.079-.426-.079-1.351-.079-2.36v-1.938zM103.143 9.291l1.44.083c1.087 0 1.341.254 1.43.587v.088c0 .167 0 .25.078.25 0 0 .088-.083.088-.167v-1.18c0-.083 0-.083-.088-.083h-.245c-.176 0-.509.083-.842.083h-4.132c-.088 0-.509-.083-.842-.083-.343.083-.421 0-.509 0 0 0-.079.083-.079.167 0 0-.255.925-.255 1.013 0 .083 0 .083.079.083 0 0 .088 0 .088-.083 0-.088.088-.171.167-.338.166-.254.42-.337 1.185-.337l1.596-.083v4.715c0 1.097 0 2.022-.079 2.448 0 .333-.087.588-.254.671h-.343c-.078 0-.078 0-.078.083H104.241c0-.083 0-.083-.088-.083h-.499c-.343-.083-.343-.338-.421-.671-.088-.426-.088-1.351-.088-2.448V9.291h-.002zM109.802 16.028c-.166.592-.421 1.014-.93 1.097h-.245c-.088 0-.176 0-.176.083h2.526c0-.083 0-.083-.078-.083h-.167c-.176 0-.421-.083-.421-.338 0-.167.079-.42.167-.759l.676-1.934.078-.088h2.448l.078.088 1.019 2.693c.079.171 0 .338-.088.338h-.088c0 .083.176.083.342.083h1.939c0-.083 0-.083-.088-.083-.078 0-.254 0-.42-.083-.255-.083-.587-.255-.92-1.18-.676-1.685-2.448-6.233-2.615-6.654-.167-.338-.167-.338-.255-.338s-.088 0-.254.421l-2.528 6.737zm1.596-2.443c-.078 0-.078 0-.078-.083l1.008-2.947c.088-.083.088-.083.166 0l1.019 2.947c.078.083.078.083 0 .083h-2.115zM121.769 12.156V9.712c0-.337.166-.592.421-.592.166-.083.333-.083.421-.083h.089c0-.083-.089-.083-.177-.083h-2.438c-.088 0-.167 0-.167.083h.079c.088 0 .342 0 .421.083.343.088.421.255.421.592.089.338.089.671.089 2.444v1.938c0 1.092 0 1.934-.089 2.443-.078.338-.078.504-.333.588h-.343c-.078 0-.078 0-.078.083H120.928c.167.088.333 0 .419 0 .257 0 .588.088 1.098.088.421.083 1.008.083 1.851.083.588 0 .588-.083.676-.254a8.672 8.672 0 0 0 .166-1.18c0-.083 0-.167-.088-.167-.078 0-.078.083-.078.167 0 .255-.166.509-.255.675-.333.338-.754.338-1.351.338-.921 0-1.176-.083-1.343-.254-.254-.167-.254-.925-.254-2.527v-2.021zM135.585 14.094c0 1.009 0 1.934-.088 2.443 0 .338-.079.504-.333.588h-.333s-.088 0-.088.083h1.264c.088 0 .42.088.676.088.333 0 .753.083.842.083 1.939 0 2.78-1.263 2.78-2.443 0-1.352-1.008-2.105-1.849-2.36.419-.592 1.008-1.097 1.008-2.022 0-.505-.422-1.602-2.195-1.602h-2.438c-.177 0-.254 0-.254.083 0 0 .077.083.166.083.088-.083.255-.083.333 0 .342.088.421.255.509.592v4.384zm.842-4.636c0-.083.09-.167.166-.167.177 0 .423-.083.51-.083 1.097 0 1.52 1.008 1.52 1.934 0 .421-.166.842-.423 1.097-.253.254-.42.254-1.008.254h-.675c0-.088-.09-.088-.09-.171V9.458zm0 3.456c0-.083.09-.083.09-.083h.841c.333 0 .589.083 1.009.333.842.593 1.098 1.601 1.098 2.277 0 1.263-1.008 1.601-1.606 1.601-.244 0-.666 0-1.008-.167-.333-.171-.333-.338-.423-.93v-3.031h-.001zM145.525 14.094c0 1.092 0 1.934-.079 2.443 0 .338-.088.504-.255.588h-.333c-.087 0-.087 0-.087.083h1.174c.177 0 .421.088.853.088.5.083 1.087.083 1.93.083.42 0 .509 0 .596-.254 0-.25.079-1.009.079-1.097 0-.083 0-.167-.079-.167l-.087.167c-.089.426-.167.676-.422.847-.253.083-.753.083-1.096.083-1.097 0-1.264-.171-1.353-.93V13.08l.089-.083c.254 0 1.351.083 1.685.083.422.083.508.255.588.421v.338c0 .083 0 .083.087.083v-.166c0-.083.09-.505.09-.76 0-.337.076-.592.076-.592 0-.083 0-.083-.076-.083 0 0-.09 0-.09.083-.087.171-.253.171-.51.171h-1.85s-.089 0-.089-.083V9.458c0-.083.089-.083.089-.083h1.606c.586.083.666.167.753.337v.421c0 .083.09.167.09.167.076 0 .076-.083.076-.167.089-.083.089-.592.089-.676 0-.338.078-.421.078-.504V8.87h-.167c-.076 0-.253 0-.419.083h-2.616l-.42-.083c-.246.083-.5.083-.754.083-.167 0-.167 0-.167.083h.078c.089 0 .254 0 .343.083.333.088.5.255.5.592v4.383zM154.71 10.471c.342.421 1.685 1.768 2.957 3.202 1.176 1.263 2.772 2.864 2.948 2.947.499.588.676.759.753.759.089 0 .089-.083.089-.842V10.05c0-.675.078-.842.421-.93.167-.083.254-.083.254-.083h.167c0-.083-.088-.083-.254-.083h-2.027c-.167 0-.244 0-.244.083h.077c.089 0 .342 0 .589.083.343.088.42.338.42 1.014l.088 5.646c-.332-.337-1.518-1.685-2.614-2.865-1.763-1.772-3.446-3.54-3.623-3.706-.079-.171-.245-.338-.333-.338-.089 0-.089.083-.089.504v6.321c0 1.009-.078 1.263-.333 1.347-.167.083-.42.083-.51.083 0 0-.076 0-.076.083h2.604c0-.083-.079-.083-.079-.083-.087 0-.343 0-.586-.083-.257-.083-.422-.338-.422-1.263l-.177-5.309zM167.439 14.094c0 1.092 0 1.934-.088 2.443 0 .338-.089.504-.255.588h-.332c-.089 0-.089 0-.089.083h1.186c.167 0 .421.088.842.088.422.083 1.097.083 1.938.083.334 0 .5 0 .5-.254.089-.25.167-1.009.167-1.097 0-.083 0-.167-.078-.167 0 0-.089 0-.089.167-.078.426-.166.676-.42.847-.333.083-.755.083-1.098.083-1.086 0-1.262-.171-1.341-.93V13.08l.079-.083c.254 0 1.351.083 1.684.083.421.083.51.255.596.421v.338c0 .083 0 .083.08.083v-.166c0-.083.087-.505.087-.76 0-.337.08-.592.08-.592 0-.083 0-.083-.08-.083 0 0-.087 0-.087.083-.08.171-.255.171-.499.171h-1.86c-.079 0-.079 0-.079-.083V9.458c0-.083.079-.083.079-.083h1.604c.589.083.675.167.755.337v.421c0 .083.087.167.087.167.08 0 .08-.083.08-.167.087-.083.087-.592.087-.676 0-.338.088-.421.088-.504 0-.083 0-.083-.088-.083h-.087c-.08 0-.247 0-.422.083h-2.604l-.422-.083c-.254.083-.508.083-.764.083-.166 0-.166 0-.166.083h.088c.078 0 .245 0 .334.083.331.088.42.255.508.592v4.383h-.001zM176.537 14.094c0 1.009 0 1.934-.089 2.36-.078.333-.078.588-.333.671h-.333c-.087 0-.087 0-.087.083H178.476c0-.083 0-.083-.089-.083h-.5c-.343-.083-.419-.338-.419-.671-.09-.426-.09-1.351-.09-2.36V13.08s0-.083.09-.083c.166 0 1.429 0 1.683.083.333 0 .587.255.587.338.089.167.089.338.089.421 0 .083 0 .083.078.083v-.166c0-.083.089-.505.089-.76 0-.337.077-.592.077-.592 0-.083 0-.083-.077-.083 0 0-.089 0-.089.083-.078.171-.255.171-.499.171h-.509l-1.429.083c-.09 0-.09-.083-.09-.167V9.458c0-.083 0-.083.09-.083h1.762c.42 0 .675.254.675.337.089.167.166.338.166.421v.167c.089 0 .089-.083.177-.167v-.676c.079-.338.079-.421.079-.504 0-.083 0-.083-.079-.083h-.088a1.3 1.3 0 0 0-.51.083h-2.691l-.422-.083h-.842c-.09 0-.166.083-.166.083 0 .083.076.083.076.083.09 0 .343 0 .423.083.342.088.42.255.42.592.089.338.089.671.089 2.444v1.939zM186.231 12.156V9.712c0-.337.079-.592.421-.592.166-.083.166-.083.245-.083h.088c0-.083 0-.083-.167-.083h-2.105c-.176 0-.176 0-.176.083h.088c.088 0 .167 0 .333.083.255 0 .343.255.343.592.078.338.078.671.078 2.444v1.938c0 1.009 0 1.934-.078 2.36-.088.333-.088.588-.343.671h-.333c-.088 0-.088 0-.088.083h2.781c0-.083-.078-.083-.078-.083h-.509c-.333-.083-.421-.338-.421-.671-.079-.426-.079-1.351-.079-2.36v-1.938zM196.259 17.379c.754 0 1.597-.083 2.018-.254.166-.083.254-.083.254-.338.167-.333.256-1.346.256-1.346 0-.167 0-.338-.089-.338 0 0-.088.171-.088.338s-.167.675-.422.842c-.421.504-1.087.592-1.929.592-2.448 0-4.054-1.939-4.054-3.961 0-1.18.177-2.11 1.018-2.864.333-.421 1.099-.842 2.527-.842 1.008 0 1.939.333 2.272.67.342.255.508.676.508 1.097 0 .167 0 .25.079.25.088 0 .088-.083.088-.25V9.878c.089-.421.089-.587.089-.67 0 0 0-.088-.177-.088-.333 0-.666-.083-1.087-.167-.599-.083-1.186-.171-1.694-.171-1.685 0-2.694.509-3.369 1.18a4.403 4.403 0 0 0-1.263 3.035c0 1.009.255 2.277 1.352 3.203.842.758 2.016 1.179 3.711 1.179zM203.671 14.094v2.443c-.087.338-.087.504-.343.588h-.332c-.089 0-.089 0-.089.083h1.264c.089 0 .343.088.842.088.422.083 1.019.083 1.861.083.421 0 .5 0 .587-.254 0-.25.167-1.009.167-1.097 0-.083 0-.167-.078-.167-.089 0-.089 0-.089.167-.087.426-.254.676-.509.847-.256.083-.754.083-1.097.083-1.086 0-1.263-.171-1.263-.93V13.08s0-.083.088-.083c.165 0 1.263.083 1.597.083.419.083.508.255.597.421.078.083.078.255.078.338v.083c.089 0 .089-.083.089-.166v-.76c.087-.337.087-.592.087-.592v-.083c-.087 0-.087 0-.176.083-.078.171-.256.171-.5.171h-1.771c-.088 0-.088 0-.088-.083V9.458c0-.083 0-.083.088-.083h1.518c.587.083.754.167.754.337.089.167.089.338.089.421 0 .083 0 .167.087.167 0 0 .079-.083.079-.167v-.676c.088-.338.088-.421.088-.504V8.87h-.167c-.087 0-.176 0-.432.083h-2.525l-.5-.083c-.166.083-.508.083-.764.083-.077 0-.166 0-.166.083h.089c.077 0 .244 0 .333.083.421.088.508.255.508.592v4.383h-.001zM212.936 10.471c.343.421 1.606 1.768 2.869 3.202 1.175 1.263 2.78 2.864 2.946 2.947.589.588.676.759.755.759.088 0 .088-.083.088-.842l.089-6.488c0-.675 0-.842.421-.93.078-.083.166-.083.244-.083h.089c0-.083-.089-.083-.167-.083h-2.104c-.089 0-.167 0-.167.083h.078c.089 0 .343 0 .509.083.333.088.422.338.422 1.014l.166 5.646c-.422-.337-1.597-1.685-2.692-2.865-1.772-1.772-3.379-3.54-3.545-3.706-.167-.171-.333-.338-.421-.338-.079 0-.079.083-.079.504v6.321c0 1.009-.088 1.263-.343 1.347-.167.083-.333.083-.421.083-.079 0-.079 0-.079.083H214.121c0-.083 0-.083-.088-.083-.079 0-.333 0-.589-.083-.253-.083-.342-.338-.419-1.263l-.089-5.308zM227.938 9.291l1.43.083c1.009 0 1.262.254 1.351.587v.088c0 .167 0 .25.078.25.089 0 .089-.083.089-.167V8.869h-.333c-.176 0-.421.083-.764.083h-4.123c-.177 0-.597-.083-.93-.083-.255.083-.422 0-.51 0 0 0-.078.083-.078.167 0 0-.256.925-.256 1.013 0 .083.079.083.079.083s.088 0 .088-.083c.089-.088.089-.171.167-.338.255-.254.51-.337 1.185-.337l1.596-.083v7.163c-.076.333-.076.588-.332.671h-.343c-.078 0-.078 0-.078.083H229.035c0-.083-.089-.083-.089-.083h-.499c-.343-.083-.421-.338-.509-.671V9.291zM235.518 14.094v2.443c-.079.338-.079.504-.334.588h-.343c-.078 0-.078 0-.078.083H236.026c.088 0 .333.088.843.088.421.083 1.008.083 1.851.083.421 0 .509 0 .597-.254.078-.25.167-1.009.167-1.097 0-.083 0-.167-.089-.167-.078 0-.078 0-.078.167-.088.426-.255.676-.508.847-.256.083-.765.083-1.098.083-1.097 0-1.264-.171-1.264-.93V13.08s0-.083.089-.083c.166 0 1.264.083 1.597.083.42.083.587.255.587.421.089.083.089.255.089.338v.083c.086 0 .086-.083.086-.166v-.76c.08-.337.08-.592.08-.592v-.083c-.08 0-.08 0-.166.083-.089.171-.256.171-.51.171h-1.763c-.089 0-.089 0-.089-.083V9.458c0-.083 0-.083.089-.083h1.508c.598.083.765.167.765.337.086.167.086.338.086.421 0 .083 0 .167.08.167 0 0 .087-.083.087-.167v-.676c.079-.338.079-.421.079-.504V8.87h-.166c-.08 0-.166 0-.422.083h-2.526l-.422-.083c-.253.083-.586.083-.841.083-.088 0-.167 0-.167.083h.079c.088 0 .254 0 .343.083.421.088.5.255.5.592v4.383h-.001z"/></g><g fill-rule="evenodd" clip-rule="evenodd" fill="#FFF"><path d="M51.831 33.218c.754 0 1.519-.082 2.272-.587 1.019-.675 1.351-1.6 1.351-2.442 0-1.437-.587-2.444-2.36-3.711l-.421-.333c-1.185-.931-1.518-1.436-1.518-2.111 0-.842.588-1.43 1.685-1.43.93 0 1.351.422 1.605.672.333.425.333.845.333 1.012s.088.255.167.255c.177 0 .177-.171.177-.509 0-1.091.078-1.513.078-1.685 0-.082-.078-.167-.255-.167-.333-.081-.92-.254-1.938-.254-1.939 0-3.281 1.098-3.281 2.699 0 1.179.499 2.188 2.105 3.45l.676.51c1.175.926 1.43 1.602 1.43 2.359 0 .754-.676 1.603-1.939 1.603-.93 0-1.772-.34-2.105-1.436 0-.256-.088-.589-.088-.758 0-.084 0-.255-.167-.255-.079 0-.167.171-.167.424 0 .251-.088 1.094-.088 1.851 0 .34 0 .422.254.507.676.254 1.352.336 2.194.336zM62.701 21.003c.675 0 1.263-.759 1.429-1.014 0-.083.088-.167.088-.25 0-.088-.088-.088-.167-.088-.088 0-.088.088-.176.171-.079.083-.421.421-.92.421-.343 0-.676-.083-1.018-.338-.333-.254-.666-.421-1.176-.421-.675 0-1.263.675-1.518 1.097 0 0-.078.166-.078.249 0 .089 0 .089.078.089.088 0 .088 0 .255-.172.088-.083.421-.504 1.008-.504.343 0 .587.167.842.338.344.25.765.422 1.353.422zm.089 8.343c.078 0 .078 0 .166.082l1.097 3.032c.078.171 0 .255-.088.337-.167 0-.254 0-.254.085 0 .088.166.088.42.088h2.782c.509 0 .675 0 .675-.088 0-.085-.088-.085-.255-.085s-.333 0-.587-.082c-.254-.084-.675-.255-1.264-1.602-.93-2.106-3.202-7.922-3.544-8.68-.167-.333-.245-.506-.333-.506-.167 0-.255.173-.421.593l-3.623 8.932c-.333.757-.587 1.179-1.264 1.345h-.421c-.088 0-.167 0-.167.085 0 .088.079.088.255.088h3.202c.167 0 .245 0 .245-.088 0-.085 0-.085-.167-.085h-.254c-.421 0-.587-.166-.587-.422 0-.253.088-.586.254-.923l.754-2.024c.088-.082.088-.082.176-.082h3.203zm-2.958-.675c-.078 0-.078 0-.078-.084l1.341-3.539c0-.085.088-.172.088-.172.088 0 .088.087.088.172l1.263 3.539c.078.084 0 .084 0 .084h-2.702zM73.237 33.218c3.702 0 5.974-2.526 5.974-5.895 0-3.29-2.184-5.396-5.807-5.396-4.299 0-5.983 3.202-5.983 5.646 0 2.615 1.684 5.645 5.816 5.645zm.666-.669c-2.781 0-4.465-2.36-4.465-5.396 0-3.622 1.861-4.549 3.545-4.549 2.36 0 4.211 2.023 4.211 5.307 0 4.129-2.272 4.638-3.291 4.638zM89.16 32.375c.254.677.333.843.499.843.255 0 .343-.248.675-1.096l1.939-4.378c.764-1.771 1.185-2.53 1.684-3.878.421-.924.676-1.179.842-1.346.254-.172.597-.172.675-.172.167 0 .255 0 .255-.082 0-.085-.088-.085-.333-.085h-2.869c-.255 0-.333 0-.333.085 0 .082.078.082.167.082.255 0 .42 0 .587.085.167.087.254.17.254.254 0 .166-.088.422-.167.588-.342.93-2.193 5.561-2.869 7.163l-2.526-6.572c-.167-.503-.333-.924-.333-1.097 0-.082.078-.249.167-.336.078-.085.333-.085.588-.085.088 0 .167 0 .167-.082 0-.085-.167-.085-.333-.085h-3.878c-.167 0-.333 0-.333.085 0 .082 0 .082.167.082.079 0 .333 0 .587.085.509.17.754.336 1.097 1.097l3.624 8.845zM97.16 28.836v3.204c-.078.42-.166.591-.421.675-.167.082-.333.082-.588.082-.167 0-.167 0-.167.085 0 .088.079.088.255.088h4.044c.167 0 .245 0 .245-.088 0-.085-.078-.085-.167-.085-.255 0-.588 0-.754-.082-.421-.084-.509-.34-.587-.675-.088-.673-.088-1.769-.088-3.204v-2.525c0-2.19 0-2.61.088-3.035 0-.506.079-.755.5-.842.166-.085.254-.085.42-.085s.255 0 .255-.082c0-.085-.167-.085-.333-.085H96.24c-.176 0-.343 0-.343.085 0 .082.088.082.254.082.167 0 .333 0 .51.085.333.087.499.336.499.842V28.836zM108.872 33.218c.93 0 2.027-.082 2.615-.336.254-.085.342-.085.342-.333.167-.509.333-1.773.333-1.939 0-.085 0-.254-.167-.254-.088 0-.088.083-.167.336 0 .255-.176.676-.431.927-.588.675-1.342.842-2.693.842-1.938 0-4.553-1.685-4.553-5.226 0-1.346.254-2.78 1.352-3.704.675-.588 1.429-.927 2.702-.927 1.342 0 2.527.339 2.948.927.42.336.587.841.587 1.263 0 .255 0 .337.088.337.167 0 .167-.082.167-.337.078-.251 0-1.093.078-1.518 0-.506.088-.755.088-.842 0-.085-.088-.167-.255-.167-.42 0-.842-.166-1.429-.166-.676-.089-1.186-.173-2.106-.173-2.104 0-3.545.506-4.553 1.518-1.352 1.264-1.597 2.947-1.597 3.962 0 1.429.333 3.031 1.684 4.293 1.344 1.096 3.028 1.517 4.967 1.517zM115.364 28.836v3.12c-.088.419-.167.759-.421.759-.166.082-.342.082-.587.082-.176 0-.176 0-.176.085 0 .088.088.088.254.088h1.019c.333.082.666.082.753.082h1.518c.588 0 1.352.084 2.438.084.51 0 .676 0 .765-.421.077-.255.167-1.263.167-1.602 0-.082 0-.256-.09-.256-.077 0-.166.089-.166.256-.078.587-.254.927-.676 1.096-.332.166-.921.166-1.263.166-1.518 0-1.685-.253-1.763-1.262v-3.369c0-.088 0-.17.078-.17.342 0 1.773 0 2.026.082.5 0 .756.254.844.51v.505c0 .081.078.165.167.165.088 0 .088-.165.088-.249 0-.088.079-.677.079-1.013.088-.672.167-.926.167-1.008 0-.089-.079-.089-.167-.089-.079 0-.079.089-.167.171-.167.166-.421.254-.754.254h-2.282c-.078 0-.078 0-.078-.17v-3.79c0-.089.078-.173.078-.173.342 0 1.861.084 2.106.084.764.089.841.256 1.018.592 0 .167.079.421.079.506 0 .169 0 .169.088.169.079 0 .079-.087.079-.087 0-.167.088-.758.088-.924 0-.676.088-.843.088-.928 0-.081 0-.17-.088-.17s-.088.089-.167.089c-.088 0-.343 0-.587.081h-3.624c-.176 0-.509 0-.842-.081-.431.081-.852.081-1.185.081-.254 0-.333 0-.333.085 0 .082.078.082.245.082.176 0 .421 0 .597.085.421.087.587.336.587.842v5.561zM125.049 25.048h.088c.255.248 1.851 2.021 3.457 3.623 1.43 1.518 3.368 3.369 4.21 4.211.167.17.344.336.51.336.078 0 .167-.082.167-.421l.166-9.185c0-.759.088-1.092.51-1.179.166-.085.254-.085.421-.085.166 0 .254 0 .254-.082 0-.085-.088-.085-.342-.085h-3.114c-.166 0-.343 0-.343.085 0 .082.088.082.253.082.167 0 .51 0 .766.085.333.17.42.42.499 1.351l.088 6.487h-.088c-.166-.255-2.184-2.361-3.114-3.286-2.193-2.109-4.387-4.382-4.553-4.637-.255-.248-.334-.421-.5-.421-.177 0-.177.173-.177.506l-.166 8.513c0 1.263-.078 1.685-.421 1.769-.254.082-.5.082-.676.082-.167 0-.244 0-.244.085 0 .088.166.088.333.088h3.369c.166 0 .342 0 .342-.088 0-.085-.089-.085-.256-.085-.253 0-.508 0-.763-.082-.255-.166-.499-.506-.499-1.602l-.177-6.065zM140.051 28.836c0 1.353 0 2.443-.079 3.12-.087.419-.176.675-.431.759-.166.082-.333.082-.499.082-.167 0-.254 0-.254.085 0 .088.087.088.254.088h4.123c.089 0 .255 0 .255-.088 0-.085-.08-.085-.255-.085-.244 0-.5 0-.754-.082-.421-.084-.51-.34-.587-.759v-9.102l1.772.089c1.34 0 1.762.421 1.762.842v.082c0 .254.088.339.167.339.087 0 .087-.085.087-.254 0-.339.088-1.348.088-1.603 0-.248 0-.337-.175-.337 0 0-.079.089-.334.089s-.509.081-1.009.081h-5.727c-.423 0-1.021-.081-1.44-.081-.333 0-.499-.173-.589-.173-.077 0-.167.084-.167.254 0 .085-.342 1.431-.342 1.603 0 .167.089.249.177.249.079 0 .079 0 .165-.167 0-.082.09-.254.257-.503.166-.338.499-.421 1.341-.421l2.193-.089v5.982h.001zM148.305 28.836v3.12c-.077.419-.165.759-.42.759-.166.082-.333.082-.587.082-.167 0-.167 0-.167.085 0 .088.088.088.255.088h1.009c.333.082.675.082.753.082h1.519c.597 0 1.351.084 2.447.084.589 0 .675 0 .755-.421.087-.255.176-1.263.176-1.602 0-.082 0-.256-.089-.256-.087 0-.087.089-.167.256-.086.587-.253.927-.596 1.096-.422.166-1.009.166-1.342.166-1.518 0-1.685-.253-1.773-1.262v-3.369c0-.088.089-.17.089-.17.333 0 1.763 0 2.018.082.587 0 .764.254.843.51v.505c0 .081.087.165.166.165.177 0 .177-.165.177-.249v-1.013c.076-.672.166-.926.166-1.008 0-.089-.09-.089-.166-.089 0 0-.089.089-.177.171-.166.166-.333.254-.666.254h-2.282c-.078 0-.167 0-.167-.17v-3.79c0-.089.089-.173.167-.173.255 0 1.772.084 2.028.084.754.089.841.256 1.008.592.089.167.089.421.089.506 0 .169 0 .169.076.169.09 0 .09-.087.09-.087.077-.167.077-.758.077-.924.09-.676.09-.843.09-.928 0-.081 0-.17-.09-.17 0 0-.077.089-.167.089-.076 0-.332 0-.586.081h-3.623c-.167 0-.509 0-.842-.081-.333.081-.755.081-1.176.081-.254 0-.343 0-.343.085 0 .082.089.082.255.082.167 0 .421 0 .588.085.421.087.586.336.586.842v5.561h-.001zM161.711 28.836c0 1.353 0 2.531-.087 3.12-.089.419-.167.759-.422.759-.167.082-.343.082-.51.082-.253 0-.253 0-.253.085 0 .088.086.088.253.088h1.019c.334.082.667.082.842.082.333 0 .843 0 1.343.084.597.082 1.185.082 1.685.082 2.702 0 4.22-1.009 4.886-1.684.764-.843 1.518-2.188 1.518-4.044 0-1.768-.676-2.948-1.343-3.706-1.604-1.603-4.043-1.603-5.815-1.603h-4.3c-.253 0-.333 0-.333.085 0 .082.08.082.247.082.253 0 .42 0 .596.085.422.087.589.336.589.842.087.425.087.845.087 3.035v2.526h-.002zm1.685-2.691c0-1.182 0-2.444.079-2.953 0-.166 0-.249.166-.249.088-.089.598-.173.931-.173 1.096 0 2.78.173 4.132 1.518.588.589 1.43 1.769 1.43 3.623 0 1.518-.333 2.781-1.264 3.624-.841.759-1.851 1.015-3.369 1.015-1.096 0-1.683-.256-1.859-.593-.166-.082-.166-.677-.166-1.099 0-.248-.079-1.345-.079-2.947v-1.766h-.001zM175.273 28.836v3.12c-.088.419-.166.759-.421.759-.166.082-.343.082-.587.082-.177 0-.177 0-.177.085 0 .088.088.088.255.088h1.019c.333.082.666.082.753.082h1.52c.586 0 1.35.084 2.437.084.51 0 .677 0 .765-.421.078-.255.167-1.263.167-1.602 0-.082 0-.256-.089-.256-.078 0-.078.089-.166.256-.078.587-.255.927-.588 1.096-.422.166-1.009.166-1.351.166-1.518 0-1.685-.253-1.763-1.262v-3.369c0-.088.078-.17.078-.17.344 0 1.772 0 2.026.082.587 0 .754.254.843.51v.505c0 .081.077.165.166.165.167 0 .167-.165.167-.249v-1.013c.087-.672.166-.926.166-1.008 0-.089-.079-.089-.166-.089 0 0-.079.089-.167.171-.166.166-.333.254-.676.254h-2.272c-.087 0-.165 0-.165-.17v-3.79c0-.089.078-.173.165-.173.257 0 1.772.084 2.019.084.764.089.841.256 1.018.592.079.167.079.421.079.506 0 .169 0 .169.087.169.079 0 .079-.087.079-.087.088-.167.088-.758.088-.924.089-.676.089-.843.089-.928 0-.081 0-.17-.089-.17 0 0-.088.089-.167.089-.087 0-.343 0-.587.081h-3.623c-.176 0-.509 0-.842-.081-.343.081-.765.081-1.186.081-.254 0-.333 0-.333.085 0 .082.079.082.245.082.177 0 .421 0 .598.085.421.087.587.336.587.842v5.561h-.001zM188.758 28.925c0 1.264 0 2.442-.089 3.031-.087.419-.166.675-.42.759-.166.082-.332.082-.509.082-.167 0-.246 0-.246.085 0 .088.079.088.333.088h3.878c.167 0 .333 0 .333-.088 0-.085-.078-.085-.255-.085-.244 0-.587 0-.754-.082-.421-.084-.508-.34-.587-.759-.088-.589-.088-1.768-.088-3.031V23.11c0-.167.088-.256.167-.256.087-.084.342-.084.597-.084.333 0 .92.084 1.43.594.842.67.842 1.685.842 2.188 0 1.435-1.097 2.359-1.938 2.359-.333 0-.422.085-.422.167 0 .089.089.089.167.173h.343c2.017 0 3.534-1.436 3.534-3.541 0-.758-.419-1.434-.752-1.767-.178-.255-.844-.761-2.703-.761h-4.045c-.166 0-.255 0-.255.085 0 .082.089.082.176.082.246 0 .499 0 .589.085.499.087.586.336.586.842.089.425.089.845.089 3.117v2.532h-.001zM201.898 29.346c.089 0 .167 0 .167.082l1.186 3.032c0 .171-.088.255-.177.337-.167 0-.167 0-.167.085 0 .088.167.088.421.088h2.703c.5 0 .665 0 .665-.088 0-.085-.077-.085-.165-.085-.167 0-.421 0-.588-.082-.333-.084-.755-.255-1.263-1.602-.931-2.106-3.29-7.922-3.624-8.68-.166-.333-.254-.506-.333-.506-.176 0-.254.173-.42.593l-3.624 8.932c-.255.757-.597 1.179-1.185 1.345h-.508c-.08 0-.167 0-.167.085 0 .088.087.088.253.088h3.291c.166 0 .245 0 .245-.088 0-.085-.079-.085-.245-.085h-.177c-.498 0-.587-.166-.587-.422 0-.253.089-.586.166-.923l.843-2.024c0-.082 0-.082.088-.082h3.202zm-2.946-.675v-.084l1.352-3.539c0-.085 0-.172.077-.172v.172l1.352 3.539c0 .084 0 .084-.088.084h-2.693zM207.628 28.417c0 2.107.51 3.117 1.185 3.792 1.009 1.009 2.438 1.009 3.202 1.009.921 0 2.018-.166 3.026-1.009 1.185-1.096 1.352-2.781 1.352-4.381v-4.553c0-.506.166-.755.508-.842.167-.085.245-.085.422-.085.167 0 .254 0 .254-.082 0-.085-.087-.085-.254-.085h-3.29c-.167 0-.333 0-.333.085 0 .082.077.082.254.082.167 0 .422 0 .5.085.508.087.675.336.675.842v4.802c0 1.518 0 2.78-.842 3.623-.587.593-1.351.76-1.938.76-.509 0-1.176-.085-1.852-.586-.675-.595-1.096-1.436-1.096-3.542v-5.056c0-.506.167-.755.5-.842.175-.085.253-.085.43-.085.166 0 .245 0 .245-.082 0-.085-.079-.085-.333-.085h-3.79c-.175 0-.342 0-.342.085 0 .082.088.082.254.082.255 0 .51 0 .588.085.509.087.598.336.598.842.078.425.078.845.078 3.035v2.106h-.001zM222.208 26.311c0-2.19 0-2.61.079-3.035 0-.506.088-.755.509-.842.167-.085.421-.085.588-.085.166 0 .254 0 .254-.082 0-.085-.088-.085-.332-.085h-3.879c-.254 0-.343 0-.343.085 0 .082.089.082.256.082.166 0 .343 0 .509.085.421.087.588.336.588.842v8.68c-.089.419-.167.759-.421.759-.167.082-.333.082-.589.082-.166 0-.166 0-.166.085 0 .088.079.088.245.088h1.019c.333.082.676.082.755.082h1.771c.675 0 1.43.084 2.438.084.765 0 .843-.084.932-.421.088-.34.166-1.436.166-1.602 0-.167 0-.256-.078-.256-.088 0-.177.089-.177.174 0 .336-.167.758-.333.925-.421.419-.93.419-1.685.419-1.184 0-1.518-.166-1.772-.335-.333-.251-.333-1.265-.333-3.115v-2.614h-.001zM233.5 33.218c3.622 0 5.894-2.526 5.894-5.895 0-3.29-2.192-5.396-5.727-5.396-4.379 0-5.985 3.202-5.985 5.646 0 2.615 1.685 5.645 5.818 5.645zm.586-.669c-2.78 0-4.376-2.36-4.376-5.396 0-3.622 1.851-4.549 3.535-4.549 2.358 0 4.21 2.023 4.21 5.307 0 4.129-2.359 4.638-3.369 4.638z"/></g><path fill-rule="evenodd" clip-rule="evenodd" fill="#FFF" d="M0 21.001C0 9.381 9.376 0 21 0c11.615 0 21.001 9.381 21.001 21.001C42.001 32.621 32.615 42 21 42 9.376 42 0 32.621 0 21.001z"/><path fill-rule="evenodd" clip-rule="evenodd" fill="#D80E2F" d="M7.856 21c0 2.03.454 3.906 1.274 5.634h6.232v6.231A12.95 12.95 0 0 0 21 34.142c2.025 0 3.901-.453 5.629-1.277v-6.231h6.231A12.865 12.865 0 0 0 34.143 21c0-2.029-.454-3.906-1.283-5.634h-6.23V9.135A12.942 12.942 0 0 0 21 7.856c-2.033 0-3.91.454-5.638 1.279v6.231H9.13A13.003 13.003 0 0 0 7.856 21zM21 25.582l5.778-5.782c.454.301.908.751 1.353 1.274L21 28.209l-7.139-7.134 1.205-1.274L21 25.582zm0-5.934 3.229-3.155 1.196 1.204L21 22.279l-4.434-4.434c.305-.449.75-.899 1.205-1.353L21 19.648zM6.05 21c0-8.26 6.685-14.946 14.95-14.946 8.256 0 14.942 6.686 14.942 14.946 0 8.261-6.686 14.947-14.942 14.947-8.265 0-14.95-6.685-14.95-14.947zM2 21C2 10.488 10.484 2 21 2c10.508 0 19 8.488 19 19 0 10.513-8.492 19-19 19-10.516 0-19-8.486-19-19z"/></svg>