<?xml version="1.0" encoding="utf-8"?>
<!-- Generator: Adobe Illustrator 16.0.0, SVG Export Plug-In . SVG Version: 6.00 Build 0)  -->
<!DOCTYPE svg PUBLIC "-//W3C//DTD SVG 1.1//EN" "http://www.w3.org/Graphics/SVG/1.1/DTD/svg11.dtd">
<svg version="1.1" id="Camada_1" xmlns="http://www.w3.org/2000/svg" xmlns:xlink="http://www.w3.org/1999/xlink" x="0px" y="0px"
	 width="240px" height="42px" viewBox="0 0 240 42" enable-background="new 0 0 240 42" xml:space="preserve">
<g id="Group_x5F_1">
	<path fill-rule="evenodd" clip-rule="evenodd" fill="#FFFFFF" d="M56.973,12.073c0-1.69,0-2.023,0-2.361
		c0.078-0.337,0.167-0.592,0.421-0.592c0.167-0.083,0.255-0.083,0.255-0.083c0.079,0,0.167,0,0.167,0
		c0-0.083-0.088-0.083-0.255-0.083h-2.272c-0.087,0-0.166,0-0.166,0.083H55.2c0.087,0,0.342,0,0.421,0.083
		c0.343,0.088,0.421,0.255,0.421,0.592c0.088,0.338,0.088,0.671,0.088,2.361v0.249c0,0.083-0.088,0.083-0.088,0.083h-4.798
		c0,0,0,0,0-0.083v-0.249c0-1.69,0-2.023,0-2.361c0-0.337,0.079-0.592,0.421-0.592c0.078-0.083,0.166-0.083,0.254-0.083
		c0.079,0,0.079,0,0.079,0c0-0.083-0.079-0.083-0.167-0.083H49.56c-0.176,0-0.176,0-0.176,0.083c0,0,0,0,0.088,0
		s0.254,0,0.333,0.083c0.42,0.088,0.509,0.255,0.509,0.592c0,0.338,0,0.671,0,2.361v1.933c0,1.097,0,2.022,0,2.448
		c-0.088,0.333-0.167,0.588-0.333,0.671c-0.088,0-0.255,0-0.343,0c-0.079,0-0.079,0-0.079,0.083c0,0,0,0,0.167,0h2.36
		c0.167,0,0.167,0,0.167,0c0-0.083,0-0.083-0.088-0.083c-0.078,0-0.333,0-0.499,0c-0.343-0.083-0.343-0.338-0.421-0.671
		c0-0.426,0-1.351,0-2.448v-1.092c0-0.083,0-0.083,0-0.083h4.798c0,0,0.088,0,0.088,0.083v1.092c0,1.097,0,2.022-0.088,2.448
		c-0.078,0.333-0.078,0.588-0.333,0.671c-0.088,0-0.254,0-0.343,0c-0.079,0-0.079,0-0.079,0.083c0,0,0.079,0,0.167,0h2.439
		c0.087,0,0.176,0,0.176,0c0-0.083,0-0.083-0.088-0.083c-0.087,0-0.333,0-0.509,0c-0.333-0.083-0.422-0.338-0.422-0.671
		c-0.078-0.426-0.078-1.351-0.078-2.448V12.073L56.973,12.073z"/>
	<path fill-rule="evenodd" clip-rule="evenodd" fill="#FFFFFF" d="M61.938,13.081c0,1.939,1.272,4.299,4.299,4.299
		c2.702,0,4.465-2.021,4.465-4.465c0-2.531-1.851-4.132-4.376-4.132C63.289,8.782,61.938,11.313,61.938,13.081L61.938,13.081z
		 M63.034,12.831c0-2.448,1.352-3.623,3.203-3.623c1.772,0,3.378,1.43,3.378,4.044c0,3.115-2.027,3.707-3.036,3.707
		C64.552,16.958,63.034,15.358,63.034,12.831L63.034,12.831z"/>
	<path fill-rule="evenodd" clip-rule="evenodd" fill="#FFFFFF" d="M76.44,17.379c0.587,0,1.174-0.171,1.596-0.504
		c0.754-0.509,0.931-1.351,0.931-1.772c0-0.842-0.255-1.518-1.606-2.526l-0.255-0.255c-1.097-0.842-1.342-1.18-1.342-1.851
		c0-0.759,0.588-1.263,1.342-1.263c1.019,0,1.263,0.504,1.351,0.587c0.088,0.083,0.167,0.421,0.167,0.587
		c0,0.088,0,0.088,0.088,0.088c0,0,0.079-0.088,0.079-0.255c0-0.759,0-1.18,0-1.18c0-0.083,0-0.083-0.079-0.083
		c-0.088,0-0.167,0-0.342-0.083c-0.333,0-0.588-0.088-1.087-0.088C75.93,8.782,75,9.628,75,10.804c0,0.759,0.255,1.435,1.44,2.36
		l0.499,0.421c0.93,0.759,1.263,1.18,1.263,1.939c0,0.676-0.5,1.434-1.518,1.434c-0.754,0-1.518-0.338-1.684-1.097
		c0-0.167,0-0.337,0-0.42c0-0.083,0-0.083-0.078-0.083c-0.088,0-0.088,0-0.088,0.167c0,0.171-0.088,0.592-0.088,1.096
		c0,0.338,0.088,0.338,0.176,0.421C75.421,17.296,75.93,17.379,76.44,17.379L76.44,17.379z"/>
	<path fill-rule="evenodd" clip-rule="evenodd" fill="#FFFFFF" d="M84.273,14.006c0,1.097,0,2.022,0,2.448
		c-0.088,0.333-0.166,0.588-0.342,0.671c-0.079,0-0.245,0-0.333,0c-0.088,0-0.088,0-0.088,0.083c0,0,0,0,0.176,0h2.35
		c0.177,0,0.177,0,0.177,0c0-0.083,0-0.083-0.088-0.083s-0.333,0-0.509,0c-0.333-0.083-0.333-0.338-0.421-0.671
		c0-0.426,0-1.351,0-2.448V9.541c0-0.083,0-0.167,0.087-0.25c0.088,0,0.255,0,0.421,0c0.254,0,0.93-0.083,1.518,0.504
		c0.588,0.587,0.588,1.347,0.588,1.685c0,1.013-0.754,1.772-1.851,1.772c-0.254,0-0.342,0-0.342,0.167c0,0,0.088,0,0.176,0
		c0,0.083,0.166,0.083,0.244,0.083c1.518,0,2.703-1.097,2.703-2.609c0-0.593-0.342-1.097-0.587-1.352
		c-0.176-0.167-0.676-0.588-2.027-0.588H83.51c-0.167,0-0.167,0-0.167,0.083c0,0,0,0,0.088,0c0.079,0,0.255,0,0.333,0.083
		c0.421,0.088,0.509,0.255,0.509,0.592c0,0.338,0,0.671,0,2.361V14.006L84.273,14.006z"/>
	<path fill-rule="evenodd" clip-rule="evenodd" fill="#FFFFFF" d="M94.555,12.156c0-1.773,0-2.106,0-2.444
		c0.079-0.337,0.167-0.592,0.421-0.592c0.167-0.083,0.245-0.083,0.333-0.083h0.088c0-0.083-0.088-0.083-0.176-0.083h-2.184
		c-0.088,0-0.176,0-0.176,0.083c0,0,0,0,0.088,0c0.088,0,0.254,0,0.333,0.083c0.254,0,0.342,0.255,0.421,0.592
		c0,0.338,0,0.671,0,2.444v1.938c0,1.009,0,1.934-0.079,2.36c0,0.333-0.088,0.588-0.342,0.671c-0.079,0-0.167,0-0.333,0
		c0,0-0.088,0-0.088,0.083c0,0,0.088,0,0.176,0h2.438c0.088,0,0.167,0,0.167,0c0-0.083,0-0.083-0.078-0.083
		c-0.088,0-0.343,0-0.509,0c-0.333-0.083-0.421-0.338-0.421-0.671c-0.079-0.426-0.079-1.351-0.079-2.36V12.156L94.555,12.156z"/>
	<path fill-rule="evenodd" clip-rule="evenodd" fill="#FFFFFF" d="M103.143,9.291l1.44,0.083c1.087,0,1.341,0.254,1.43,0.587v0.088
		c0,0.167,0,0.25,0.078,0.25c0,0,0.088-0.083,0.088-0.167c0-0.083,0-0.842,0-1.18c0-0.083,0-0.083-0.088-0.083c0,0-0.078,0-0.245,0
		c-0.176,0-0.509,0.083-0.842,0.083h-4.132c-0.088,0-0.509-0.083-0.842-0.083c-0.343,0.083-0.421,0-0.509,0
		c0,0-0.079,0.083-0.079,0.167c0,0-0.255,0.925-0.255,1.013c0,0.083,0,0.083,0.079,0.083c0,0,0.088,0,0.088-0.083
		c0-0.088,0.088-0.171,0.167-0.338c0.166-0.254,0.42-0.337,1.185-0.337l1.596-0.083v4.715c0,1.097,0,2.022-0.079,2.448
		c0,0.333-0.087,0.588-0.254,0.671c-0.167,0-0.255,0-0.343,0c-0.078,0-0.078,0-0.078,0.083c0,0,0,0,0.167,0h2.359
		c0.167,0,0.167,0,0.167,0c0-0.083,0-0.083-0.088-0.083c-0.079,0-0.333,0-0.499,0c-0.343-0.083-0.343-0.338-0.421-0.671
		c-0.088-0.426-0.088-1.351-0.088-2.448V9.291L103.143,9.291z"/>
	<path fill-rule="evenodd" clip-rule="evenodd" fill="#FFFFFF" d="M109.802,16.028c-0.166,0.592-0.421,1.014-0.93,1.097
		c-0.079,0-0.167,0-0.245,0c-0.088,0-0.176,0-0.176,0.083c0,0,0.088,0,0.254,0h2.105c0.088,0,0.167,0,0.167,0
		c0-0.083,0-0.083-0.078-0.083h-0.167c-0.176,0-0.421-0.083-0.421-0.338c0-0.167,0.079-0.42,0.167-0.759l0.676-1.934l0.078-0.088
		h2.448c0,0,0,0,0.078,0.088l1.019,2.693c0.079,0.171,0,0.338-0.088,0.338h-0.088c0,0.083,0.176,0.083,0.342,0.083
		c0.754,0,1.597,0,1.772,0c0.078,0,0.167,0,0.167,0c0-0.083,0-0.083-0.088-0.083c-0.078,0-0.254,0-0.42-0.083
		c-0.255-0.083-0.587-0.255-0.92-1.18c-0.676-1.685-2.448-6.233-2.615-6.654c-0.167-0.338-0.167-0.338-0.255-0.338
		c-0.088,0-0.088,0-0.254,0.421L109.802,16.028L109.802,16.028z M111.398,13.585c-0.078,0-0.078,0-0.078-0.083l1.008-2.947
		c0.088-0.083,0.088-0.083,0.166,0l1.019,2.947c0.078,0.083,0.078,0.083,0,0.083H111.398L111.398,13.585z"/>
	<path fill-rule="evenodd" clip-rule="evenodd" fill="#FFFFFF" d="M121.769,12.156c0-1.773,0-2.106,0-2.444
		c0-0.337,0.166-0.592,0.421-0.592c0.166-0.083,0.333-0.083,0.421-0.083h0.089c0-0.083-0.089-0.083-0.177-0.083h-2.438
		c-0.088,0-0.167,0-0.167,0.083h0.079c0.088,0,0.342,0,0.421,0.083c0.343,0.088,0.421,0.255,0.421,0.592
		c0.089,0.338,0.089,0.671,0.089,2.444v1.938c0,1.092,0,1.934-0.089,2.443c-0.078,0.338-0.078,0.504-0.333,0.588
		c-0.088,0-0.254,0-0.343,0c-0.078,0-0.078,0-0.078,0.083c0,0,0.078,0,0.167,0c0.167,0,0.421,0,0.676,0c0.167,0.088,0.333,0,0.419,0
		c0.257,0,0.588,0.088,1.098,0.088c0.421,0.083,1.008,0.083,1.851,0.083c0.588,0,0.588-0.083,0.676-0.254
		c0.078-0.338,0.166-1.009,0.166-1.18c0-0.083,0-0.167-0.088-0.167c-0.078,0-0.078,0.083-0.078,0.167
		c0,0.255-0.166,0.509-0.255,0.675c-0.333,0.338-0.754,0.338-1.351,0.338c-0.921,0-1.176-0.083-1.343-0.254
		c-0.254-0.167-0.254-0.925-0.254-2.527V12.156L121.769,12.156z"/>
	<path fill-rule="evenodd" clip-rule="evenodd" fill="#FFFFFF" d="M135.585,14.094c0,1.009,0,1.934-0.088,2.443
		c0,0.338-0.079,0.504-0.333,0.588c-0.088,0-0.166,0-0.333,0c0,0-0.088,0-0.088,0.083c0,0,0.088,0,0.255,0c0.166,0,0.42,0,0.587,0
		c0.255,0,0.422,0,0.422,0c0.088,0,0.42,0.088,0.676,0.088c0.333,0,0.753,0.083,0.842,0.083c1.939,0,2.78-1.263,2.78-2.443
		c0-1.352-1.008-2.105-1.849-2.36c0.419-0.592,1.008-1.097,1.008-2.022c0-0.505-0.422-1.602-2.195-1.602h-2.438
		c-0.177,0-0.254,0-0.254,0.083c0,0,0.077,0.083,0.166,0.083c0.088-0.083,0.255-0.083,0.333,0c0.342,0.088,0.421,0.255,0.509,0.592
		c0,0.338,0,0.671,0,2.361V14.094L135.585,14.094z M136.427,9.458c0-0.083,0.09-0.167,0.166-0.167c0.177,0,0.423-0.083,0.51-0.083
		c1.097,0,1.52,1.008,1.52,1.934c0,0.421-0.166,0.842-0.423,1.097c-0.253,0.254-0.42,0.254-1.008,0.254c-0.422,0-0.599,0-0.675,0
		c0-0.088-0.09-0.088-0.09-0.171V9.458L136.427,9.458z M136.427,12.914c0-0.083,0.09-0.083,0.09-0.083c0.166,0,0.752,0,0.841,0
		c0.333,0,0.589,0.083,1.009,0.333c0.842,0.593,1.098,1.601,1.098,2.277c0,1.263-1.008,1.601-1.606,1.601
		c-0.244,0-0.666,0-1.008-0.167c-0.333-0.171-0.333-0.338-0.423-0.93c0-0.167,0-1.518,0-2.443V12.914L136.427,12.914z"/>
	<path fill-rule="evenodd" clip-rule="evenodd" fill="#FFFFFF" d="M145.525,14.094c0,1.092,0,1.934-0.079,2.443
		c0,0.338-0.088,0.504-0.255,0.588c-0.166,0-0.255,0-0.333,0c-0.087,0-0.087,0-0.087,0.083c0,0,0,0,0.165,0c0.167,0,0.422,0,0.589,0
		c0.254,0,0.42,0,0.42,0c0.177,0,0.421,0.088,0.853,0.088c0.5,0.083,1.087,0.083,1.93,0.083c0.42,0,0.509,0,0.596-0.254
		c0-0.25,0.079-1.009,0.079-1.097c0-0.083,0-0.167-0.079-0.167c0,0,0,0-0.087,0.167c-0.089,0.426-0.167,0.676-0.422,0.847
		c-0.253,0.083-0.753,0.083-1.096,0.083c-1.097,0-1.264-0.171-1.353-0.93c0-0.25,0-1.513,0-1.934v-1.014l0.089-0.083
		c0.254,0,1.351,0.083,1.685,0.083c0.422,0.083,0.508,0.255,0.588,0.421c0,0.083,0,0.255,0,0.338c0,0.083,0,0.083,0.087,0.083
		c0,0,0-0.083,0-0.166c0-0.083,0.09-0.505,0.09-0.76c0-0.337,0.076-0.592,0.076-0.592c0-0.083,0-0.083-0.076-0.083
		c0,0-0.09,0-0.09,0.083c-0.087,0.171-0.253,0.171-0.51,0.171c-0.243,0-1.683,0-1.85,0c0,0-0.089,0-0.089-0.083V9.458
		c0-0.083,0.089-0.083,0.089-0.083c0.167,0,1.351,0,1.606,0c0.586,0.083,0.666,0.167,0.753,0.337c0,0.167,0,0.338,0,0.421
		c0,0.083,0.09,0.167,0.09,0.167c0.076,0,0.076-0.083,0.076-0.167c0.089-0.083,0.089-0.592,0.089-0.676
		c0-0.338,0.078-0.421,0.078-0.504c0-0.083,0-0.083,0-0.083c-0.078,0-0.167,0-0.167,0c-0.076,0-0.253,0-0.419,0.083
		c-0.257,0-2.528,0-2.616,0l-0.42-0.083c-0.246,0.083-0.5,0.083-0.754,0.083c-0.167,0-0.167,0-0.167,0.083c0,0,0,0,0.078,0
		c0.089,0,0.254,0,0.343,0.083c0.333,0.088,0.5,0.255,0.5,0.592c0,0.338,0,0.671,0,2.444V14.094L145.525,14.094z"/>
	<path fill-rule="evenodd" clip-rule="evenodd" fill="#FFFFFF" d="M154.71,10.471c0.342,0.421,1.685,1.768,2.957,3.202
		c1.176,1.263,2.772,2.864,2.948,2.947c0.499,0.588,0.676,0.759,0.753,0.759c0.089,0,0.089-0.083,0.089-0.842V10.05
		c0-0.675,0.078-0.842,0.421-0.93c0.167-0.083,0.254-0.083,0.254-0.083c0.079,0,0.167,0,0.167,0c0-0.083-0.088-0.083-0.254-0.083
		h-2.027c-0.167,0-0.244,0-0.244,0.083c0,0,0,0,0.077,0c0.089,0,0.342,0,0.589,0.083c0.343,0.088,0.42,0.338,0.42,1.014l0.088,5.646
		c-0.332-0.337-1.518-1.685-2.614-2.865c-1.763-1.772-3.446-3.54-3.623-3.706c-0.079-0.171-0.245-0.338-0.333-0.338
		c-0.089,0-0.089,0.083-0.089,0.504v6.321c0,1.009-0.078,1.263-0.333,1.347c-0.167,0.083-0.42,0.083-0.51,0.083
		c0,0-0.076,0-0.076,0.083c0,0,0.076,0,0.166,0h2.192c0.167,0,0.246,0,0.246,0c0-0.083-0.079-0.083-0.079-0.083
		c-0.087,0-0.343,0-0.586-0.083c-0.257-0.083-0.422-0.338-0.422-1.263L154.71,10.471L154.71,10.471z"/>
	<path fill-rule="evenodd" clip-rule="evenodd" fill="#FFFFFF" d="M167.439,14.094c0,1.092,0,1.934-0.088,2.443
		c0,0.338-0.089,0.504-0.255,0.588c-0.165,0-0.254,0-0.332,0c-0.089,0-0.089,0-0.089,0.083c0,0,0,0,0.167,0c0.176,0,0.42,0,0.597,0
		c0.245,0,0.422,0,0.422,0c0.167,0,0.421,0.088,0.842,0.088c0.422,0.083,1.097,0.083,1.938,0.083c0.334,0,0.5,0,0.5-0.254
		c0.089-0.25,0.167-1.009,0.167-1.097c0-0.083,0-0.167-0.078-0.167c0,0-0.089,0-0.089,0.167c-0.078,0.426-0.166,0.676-0.42,0.847
		c-0.333,0.083-0.755,0.083-1.098,0.083c-1.086,0-1.262-0.171-1.341-0.93c0-0.25,0-1.513,0-1.934v-1.014l0.079-0.083
		c0.254,0,1.351,0.083,1.684,0.083c0.421,0.083,0.51,0.255,0.596,0.421c0,0.083,0,0.255,0,0.338c0,0.083,0,0.083,0.08,0.083
		c0,0,0-0.083,0-0.166c0-0.083,0.087-0.505,0.087-0.76c0-0.337,0.08-0.592,0.08-0.592c0-0.083,0-0.083-0.08-0.083
		c0,0-0.087,0-0.087,0.083c-0.08,0.171-0.255,0.171-0.499,0.171c-0.256,0-1.685,0-1.86,0c-0.079,0-0.079,0-0.079-0.083V9.458
		c0-0.083,0.079-0.083,0.079-0.083c0.176,0,1.351,0,1.604,0c0.589,0.083,0.675,0.167,0.755,0.337c0,0.167,0,0.338,0,0.421
		c0,0.083,0.087,0.167,0.087,0.167c0.08,0,0.08-0.083,0.08-0.167c0.087-0.083,0.087-0.592,0.087-0.676
		c0-0.338,0.088-0.421,0.088-0.504c0-0.083,0-0.083-0.088-0.083h-0.087c-0.08,0-0.247,0-0.422,0.083c-0.244,0-2.526,0-2.604,0
		l-0.422-0.083c-0.254,0.083-0.508,0.083-0.764,0.083c-0.166,0-0.166,0-0.166,0.083c0,0,0,0,0.088,0c0.078,0,0.245,0,0.334,0.083
		c0.331,0.088,0.42,0.255,0.508,0.592c0,0.338,0,0.671,0,2.444V14.094L167.439,14.094z"/>
	<path fill-rule="evenodd" clip-rule="evenodd" fill="#FFFFFF" d="M176.537,14.094c0,1.009,0,1.934-0.089,2.36
		c-0.078,0.333-0.078,0.588-0.333,0.671c-0.087,0-0.253,0-0.333,0c-0.087,0-0.087,0-0.087,0.083c0,0,0.087,0,0.167,0h2.447
		c0.078,0,0.167,0,0.167,0c0-0.083,0-0.083-0.089-0.083c-0.078,0-0.333,0-0.5,0c-0.343-0.083-0.419-0.338-0.419-0.671
		c-0.09-0.426-0.09-1.351-0.09-2.36v-1.014c0,0,0-0.083,0.09-0.083c0.166,0,1.429,0,1.683,0.083c0.333,0,0.587,0.255,0.587,0.338
		c0.089,0.167,0.089,0.338,0.089,0.421c0,0.083,0,0.083,0.078,0.083c0,0,0-0.083,0-0.166c0-0.083,0.089-0.505,0.089-0.76
		c0-0.337,0.077-0.592,0.077-0.592c0-0.083,0-0.083-0.077-0.083c0,0-0.089,0-0.089,0.083c-0.078,0.171-0.255,0.171-0.499,0.171
		c-0.176,0-0.343,0-0.509,0l-1.429,0.083c-0.09,0-0.09-0.083-0.09-0.167V9.458c0-0.083,0-0.083,0.09-0.083h1.762
		c0.42,0,0.675,0.254,0.675,0.337c0.089,0.167,0.166,0.338,0.166,0.421c0,0.083,0,0.167,0,0.167c0.089,0,0.089-0.083,0.177-0.167
		c0-0.083,0-0.592,0-0.676c0.079-0.338,0.079-0.421,0.079-0.504c0-0.083,0-0.083-0.079-0.083h-0.088c-0.166,0-0.255,0-0.51,0.083
		c-0.244,0-2.525,0-2.691,0l-0.422-0.083c-0.256,0-0.589,0-0.842,0c-0.09,0-0.166,0.083-0.166,0.083
		c0,0.083,0.076,0.083,0.076,0.083c0.09,0,0.343,0,0.423,0.083c0.342,0.088,0.42,0.255,0.42,0.592
		c0.089,0.338,0.089,0.671,0.089,2.444V14.094L176.537,14.094z"/>
	<path fill-rule="evenodd" clip-rule="evenodd" fill="#FFFFFF" d="M186.231,12.156c0-1.773,0-2.106,0-2.444
		c0-0.337,0.079-0.592,0.421-0.592c0.166-0.083,0.166-0.083,0.245-0.083c0.088,0,0.088,0,0.088,0c0-0.083,0-0.083-0.167-0.083
		h-2.105c-0.176,0-0.176,0-0.176,0.083c0,0,0,0,0.088,0s0.167,0,0.333,0.083c0.255,0,0.343,0.255,0.343,0.592
		c0.078,0.338,0.078,0.671,0.078,2.444v1.938c0,1.009,0,1.934-0.078,2.36c-0.088,0.333-0.088,0.588-0.343,0.671
		c-0.078,0-0.245,0-0.333,0s-0.088,0-0.088,0.083c0,0,0.088,0,0.176,0h2.438c0.089,0,0.167,0,0.167,0
		c0-0.083-0.078-0.083-0.078-0.083c-0.166,0-0.343,0-0.509,0c-0.333-0.083-0.421-0.338-0.421-0.671
		c-0.079-0.426-0.079-1.351-0.079-2.36V12.156L186.231,12.156z"/>
	<path fill-rule="evenodd" clip-rule="evenodd" fill="#FFFFFF" d="M196.259,17.379c0.754,0,1.597-0.083,2.018-0.254
		c0.166-0.083,0.254-0.083,0.254-0.338c0.167-0.333,0.256-1.346,0.256-1.346c0-0.167,0-0.338-0.089-0.338
		c0,0-0.088,0.171-0.088,0.338c0,0.167-0.167,0.675-0.422,0.842c-0.421,0.504-1.087,0.592-1.929,0.592
		c-2.448,0-4.054-1.939-4.054-3.961c0-1.18,0.177-2.11,1.018-2.864c0.333-0.421,1.099-0.842,2.527-0.842
		c1.008,0,1.939,0.333,2.272,0.67c0.342,0.255,0.508,0.676,0.508,1.097c0,0.167,0,0.25,0.079,0.25c0.088,0,0.088-0.083,0.088-0.25
		c0-0.171,0-0.759,0-1.097c0.089-0.421,0.089-0.587,0.089-0.67c0,0,0-0.088-0.177-0.088c-0.333,0-0.666-0.083-1.087-0.167
		c-0.599-0.083-1.186-0.171-1.694-0.171c-1.685,0-2.694,0.509-3.369,1.18c-1.008,1.014-1.263,2.277-1.263,3.035
		c0,1.009,0.255,2.277,1.352,3.203C193.39,16.958,194.564,17.379,196.259,17.379L196.259,17.379z"/>
	<path fill-rule="evenodd" clip-rule="evenodd" fill="#FFFFFF" d="M203.671,14.094c0,1.092,0,1.934,0,2.443
		c-0.087,0.338-0.087,0.504-0.343,0.588c-0.077,0-0.254,0-0.332,0c-0.089,0-0.089,0-0.089,0.083c0,0,0.089,0,0.167,0
		c0.177,0,0.431,0,0.676,0c0.177,0,0.343,0,0.421,0c0.089,0,0.343,0.088,0.842,0.088c0.422,0.083,1.019,0.083,1.861,0.083
		c0.421,0,0.5,0,0.587-0.254c0-0.25,0.167-1.009,0.167-1.097c0-0.083,0-0.167-0.078-0.167c-0.089,0-0.089,0-0.089,0.167
		c-0.087,0.426-0.254,0.676-0.509,0.847c-0.256,0.083-0.754,0.083-1.097,0.083c-1.086,0-1.263-0.171-1.263-0.93
		c0-0.25,0-1.513,0-1.934v-1.014c0,0,0-0.083,0.088-0.083c0.165,0,1.263,0.083,1.597,0.083c0.419,0.083,0.508,0.255,0.597,0.421
		c0.078,0.083,0.078,0.255,0.078,0.338c0,0.083,0,0.083,0,0.083c0.089,0,0.089-0.083,0.089-0.166c0-0.083,0-0.505,0-0.76
		c0.087-0.337,0.087-0.592,0.087-0.592c0-0.083,0-0.083,0-0.083c-0.087,0-0.087,0-0.176,0.083c-0.078,0.171-0.256,0.171-0.5,0.171
		c-0.254,0-1.683,0-1.771,0c-0.088,0-0.088,0-0.088-0.083V9.458c0-0.083,0-0.083,0.088-0.083c0.089,0,1.351,0,1.518,0
		c0.587,0.083,0.754,0.167,0.754,0.337c0.089,0.167,0.089,0.338,0.089,0.421c0,0.083,0,0.167,0.087,0.167
		c0,0,0.079-0.083,0.079-0.167c0-0.083,0-0.592,0-0.676c0.088-0.338,0.088-0.421,0.088-0.504c0-0.083,0-0.083,0-0.083
		c-0.088,0-0.088,0-0.167,0c-0.087,0-0.176,0-0.432,0.083c-0.244,0-2.525,0-2.525,0l-0.5-0.083
		c-0.166,0.083-0.508,0.083-0.764,0.083c-0.077,0-0.166,0-0.166,0.083c0,0,0,0,0.089,0c0.077,0,0.244,0,0.333,0.083
		c0.421,0.088,0.508,0.255,0.508,0.592c0,0.338,0,0.671,0,2.444V14.094L203.671,14.094z"/>
	<path fill-rule="evenodd" clip-rule="evenodd" fill="#FFFFFF" d="M212.936,10.471c0.343,0.421,1.606,1.768,2.869,3.202
		c1.175,1.263,2.78,2.864,2.946,2.947c0.589,0.588,0.676,0.759,0.755,0.759c0.088,0,0.088-0.083,0.088-0.842l0.089-6.488
		c0-0.675,0-0.842,0.421-0.93c0.078-0.083,0.166-0.083,0.244-0.083c0.089,0,0.089,0,0.089,0c0-0.083-0.089-0.083-0.167-0.083h-2.104
		c-0.089,0-0.167,0-0.167,0.083c0,0,0,0,0.078,0c0.089,0,0.343,0,0.509,0.083c0.333,0.088,0.422,0.338,0.422,1.014l0.166,5.646
		c-0.422-0.337-1.597-1.685-2.692-2.865c-1.772-1.772-3.379-3.54-3.545-3.706c-0.167-0.171-0.333-0.338-0.421-0.338
		c-0.079,0-0.079,0.083-0.079,0.504v6.321c0,1.009-0.088,1.263-0.343,1.347c-0.167,0.083-0.333,0.083-0.421,0.083
		c-0.079,0-0.079,0-0.079,0.083c0,0,0,0,0.167,0h2.193c0.079,0,0.167,0,0.167,0c0-0.083,0-0.083-0.088-0.083
		c-0.079,0-0.333,0-0.589-0.083c-0.253-0.083-0.342-0.338-0.419-1.263L212.936,10.471L212.936,10.471z"/>
	<path fill-rule="evenodd" clip-rule="evenodd" fill="#FFFFFF" d="M227.938,9.291l1.43,0.083c1.009,0,1.262,0.254,1.351,0.587v0.088
		c0,0.167,0,0.25,0.078,0.25c0.089,0,0.089-0.083,0.089-0.167c0-0.083,0-0.842,0-1.18c0-0.083,0-0.083,0-0.083
		c-0.089,0-0.167,0-0.333,0c-0.176,0-0.421,0.083-0.764,0.083h-4.123c-0.177,0-0.597-0.083-0.93-0.083c-0.255,0.083-0.422,0-0.51,0
		c0,0-0.078,0.083-0.078,0.167c0,0-0.256,0.925-0.256,1.013c0,0.083,0.079,0.083,0.079,0.083s0.088,0,0.088-0.083
		c0.089-0.088,0.089-0.171,0.167-0.338c0.255-0.254,0.51-0.337,1.185-0.337l1.596-0.083v4.715c0,1.097,0,2.022,0,2.448
		c-0.076,0.333-0.076,0.588-0.332,0.671c-0.088,0-0.254,0-0.343,0c-0.078,0-0.078,0-0.078,0.083c0,0,0.078,0,0.167,0h2.447
		c0.078,0,0.167,0,0.167,0c0-0.083-0.089-0.083-0.089-0.083c-0.167,0-0.421,0-0.499,0c-0.343-0.083-0.421-0.338-0.509-0.671
		c0-0.426,0-1.351,0-2.448V9.291L227.938,9.291z"/>
	<path fill-rule="evenodd" clip-rule="evenodd" fill="#FFFFFF" d="M235.518,14.094c0,1.092,0,1.934,0,2.443
		c-0.079,0.338-0.079,0.504-0.334,0.588c-0.088,0-0.255,0-0.343,0c-0.078,0-0.078,0-0.078,0.083c0,0,0.078,0,0.166,0
		c0.167,0,0.422,0,0.675,0c0.167,0,0.333,0,0.422,0c0.088,0,0.333,0.088,0.843,0.088c0.421,0.083,1.008,0.083,1.851,0.083
		c0.421,0,0.509,0,0.597-0.254c0.078-0.25,0.167-1.009,0.167-1.097c0-0.083,0-0.167-0.089-0.167c-0.078,0-0.078,0-0.078,0.167
		c-0.088,0.426-0.255,0.676-0.508,0.847c-0.256,0.083-0.765,0.083-1.098,0.083c-1.097,0-1.264-0.171-1.264-0.93
		c0-0.25,0-1.513,0-1.934v-1.014c0,0,0-0.083,0.089-0.083c0.166,0,1.264,0.083,1.597,0.083c0.42,0.083,0.587,0.255,0.587,0.421
		c0.089,0.083,0.089,0.255,0.089,0.338c0,0.083,0,0.083,0,0.083c0.086,0,0.086-0.083,0.086-0.166c0-0.083,0-0.505,0-0.76
		c0.08-0.337,0.08-0.592,0.08-0.592c0-0.083,0-0.083,0-0.083c-0.08,0-0.08,0-0.166,0.083c-0.089,0.171-0.256,0.171-0.51,0.171
		c-0.255,0-1.685,0-1.763,0c-0.089,0-0.089,0-0.089-0.083V9.458c0-0.083,0-0.083,0.089-0.083c0.078,0,1.341,0,1.508,0
		c0.598,0.083,0.765,0.167,0.765,0.337c0.086,0.167,0.086,0.338,0.086,0.421c0,0.083,0,0.167,0.08,0.167
		c0,0,0.087-0.083,0.087-0.167c0-0.083,0-0.592,0-0.676c0.079-0.338,0.079-0.421,0.079-0.504c0-0.083,0-0.083,0-0.083
		c-0.079,0-0.079,0-0.166,0c-0.08,0-0.166,0-0.422,0.083c-0.254,0-2.526,0-2.526,0l-0.422-0.083
		c-0.253,0.083-0.586,0.083-0.841,0.083c-0.088,0-0.167,0-0.167,0.083c0,0,0,0,0.079,0c0.088,0,0.254,0,0.343,0.083
		c0.421,0.088,0.5,0.255,0.5,0.592c0,0.338,0,0.671,0,2.444V14.094L235.518,14.094z"/>
</g>
<g id="Group_x5F_2">
	<path fill-rule="evenodd" clip-rule="evenodd" fill="#FFFFFF" d="M51.831,33.218c0.754,0,1.519-0.082,2.272-0.587
		c1.019-0.675,1.351-1.6,1.351-2.442c0-1.437-0.587-2.444-2.36-3.711l-0.421-0.333c-1.185-0.931-1.518-1.436-1.518-2.111
		c0-0.842,0.588-1.43,1.685-1.43c0.93,0,1.351,0.422,1.605,0.672c0.333,0.425,0.333,0.845,0.333,1.012s0.088,0.255,0.167,0.255
		c0.177,0,0.177-0.171,0.177-0.509c0-1.091,0.078-1.513,0.078-1.685c0-0.082-0.078-0.167-0.255-0.167
		c-0.333-0.081-0.92-0.254-1.938-0.254c-1.939,0-3.281,1.098-3.281,2.699c0,1.179,0.499,2.188,2.105,3.45l0.676,0.51
		c1.175,0.926,1.43,1.602,1.43,2.359c0,0.754-0.676,1.603-1.939,1.603c-0.93,0-1.772-0.34-2.105-1.436
		c0-0.256-0.088-0.589-0.088-0.758c0-0.084,0-0.255-0.167-0.255c-0.079,0-0.167,0.171-0.167,0.424c0,0.251-0.088,1.094-0.088,1.851
		c0,0.34,0,0.422,0.254,0.507C50.313,33.136,50.989,33.218,51.831,33.218L51.831,33.218z"/>
	<path fill-rule="evenodd" clip-rule="evenodd" fill="#FFFFFF" d="M62.701,21.003c0.675,0,1.263-0.759,1.429-1.014
		c0-0.083,0.088-0.167,0.088-0.25c0-0.088-0.088-0.088-0.167-0.088c-0.088,0-0.088,0.088-0.176,0.171
		c-0.079,0.083-0.421,0.421-0.92,0.421c-0.343,0-0.676-0.083-1.018-0.338c-0.333-0.254-0.666-0.421-1.176-0.421
		c-0.675,0-1.263,0.675-1.518,1.097c0,0-0.078,0.166-0.078,0.249c0,0.089,0,0.089,0.078,0.089c0.088,0,0.088,0,0.255-0.172
		c0.088-0.083,0.421-0.504,1.008-0.504c0.343,0,0.587,0.167,0.842,0.338C61.692,20.831,62.113,21.003,62.701,21.003L62.701,21.003z
		 M62.79,29.346c0.078,0,0.078,0,0.166,0.082l1.097,3.032c0.078,0.171,0,0.255-0.088,0.337c-0.167,0-0.254,0-0.254,0.085
		c0,0.088,0.166,0.088,0.42,0.088c1.185,0,2.282,0,2.782,0c0.509,0,0.675,0,0.675-0.088c0-0.085-0.088-0.085-0.255-0.085
		s-0.333,0-0.587-0.082c-0.254-0.084-0.675-0.255-1.264-1.602c-0.93-2.106-3.202-7.922-3.544-8.68
		c-0.167-0.333-0.245-0.506-0.333-0.506c-0.167,0-0.255,0.173-0.421,0.593l-3.623,8.932c-0.333,0.757-0.587,1.179-1.264,1.345
		c-0.087,0-0.333,0-0.421,0c-0.088,0-0.167,0-0.167,0.085c0,0.088,0.079,0.088,0.255,0.088h3.202c0.167,0,0.245,0,0.245-0.088
		c0-0.085,0-0.085-0.167-0.085H58.99c-0.421,0-0.587-0.166-0.587-0.422c0-0.253,0.088-0.586,0.254-0.923l0.754-2.024
		c0.088-0.082,0.088-0.082,0.176-0.082H62.79L62.79,29.346z M59.832,28.671c-0.078,0-0.078,0-0.078-0.084l1.341-3.539
		c0-0.085,0.088-0.172,0.088-0.172c0.088,0,0.088,0.087,0.088,0.172l1.263,3.539c0.078,0.084,0,0.084,0,0.084H59.832L59.832,28.671z
		"/>
	<path fill-rule="evenodd" clip-rule="evenodd" fill="#FFFFFF" d="M73.237,33.218c3.702,0,5.974-2.526,5.974-5.895
		c0-3.29-2.184-5.396-5.807-5.396c-4.299,0-5.983,3.202-5.983,5.646C67.421,30.188,69.105,33.218,73.237,33.218L73.237,33.218z
		 M73.903,32.549c-2.781,0-4.465-2.36-4.465-5.396c0-3.622,1.861-4.549,3.545-4.549c2.36,0,4.211,2.023,4.211,5.307
		C77.194,32.04,74.922,32.549,73.903,32.549L73.903,32.549z"/>
	<path fill-rule="evenodd" clip-rule="evenodd" fill="#FFFFFF" d="M89.16,32.375c0.254,0.677,0.333,0.843,0.499,0.843
		c0.255,0,0.343-0.248,0.675-1.096l1.939-4.378c0.764-1.771,1.185-2.53,1.684-3.878c0.421-0.924,0.676-1.179,0.842-1.346
		c0.254-0.172,0.597-0.172,0.675-0.172c0.167,0,0.255,0,0.255-0.082c0-0.085-0.088-0.085-0.333-0.085h-2.869
		c-0.255,0-0.333,0-0.333,0.085c0,0.082,0.078,0.082,0.167,0.082c0.255,0,0.42,0,0.587,0.085c0.167,0.087,0.254,0.17,0.254,0.254
		c0,0.166-0.088,0.422-0.167,0.588c-0.342,0.93-2.193,5.561-2.869,7.163l0,0l-2.526-6.572c-0.167-0.503-0.333-0.924-0.333-1.097
		c0-0.082,0.078-0.249,0.167-0.336c0.078-0.085,0.333-0.085,0.588-0.085c0.088,0,0.167,0,0.167-0.082
		c0-0.085-0.167-0.085-0.333-0.085h-3.878c-0.167,0-0.333,0-0.333,0.085c0,0.082,0,0.082,0.167,0.082c0.079,0,0.333,0,0.587,0.085
		c0.509,0.17,0.754,0.336,1.097,1.097L89.16,32.375L89.16,32.375z"/>
	<path fill-rule="evenodd" clip-rule="evenodd" fill="#FFFFFF" d="M97.16,28.836c0,1.436,0,2.531,0,3.204
		c-0.078,0.42-0.166,0.591-0.421,0.675c-0.167,0.082-0.333,0.082-0.588,0.082c-0.167,0-0.167,0-0.167,0.085
		c0,0.088,0.079,0.088,0.255,0.088h4.044c0.167,0,0.245,0,0.245-0.088c0-0.085-0.078-0.085-0.167-0.085
		c-0.255,0-0.588,0-0.754-0.082c-0.421-0.084-0.509-0.34-0.587-0.675c-0.088-0.673-0.088-1.769-0.088-3.204v-2.525
		c0-2.19,0-2.61,0.088-3.035c0-0.506,0.079-0.755,0.5-0.842c0.166-0.085,0.254-0.085,0.42-0.085s0.255,0,0.255-0.082
		c0-0.085-0.167-0.085-0.333-0.085H96.24c-0.176,0-0.343,0-0.343,0.085c0,0.082,0.088,0.082,0.254,0.082c0.167,0,0.333,0,0.51,0.085
		c0.333,0.087,0.499,0.336,0.499,0.842c0,0.425,0,0.845,0,3.035V28.836L97.16,28.836z"/>
	<path fill-rule="evenodd" clip-rule="evenodd" fill="#FFFFFF" d="M108.872,33.218c0.93,0,2.027-0.082,2.615-0.336
		c0.254-0.085,0.342-0.085,0.342-0.333c0.167-0.509,0.333-1.773,0.333-1.939c0-0.085,0-0.254-0.167-0.254
		c-0.088,0-0.088,0.083-0.167,0.336c0,0.255-0.176,0.676-0.431,0.927c-0.588,0.675-1.342,0.842-2.693,0.842
		c-1.938,0-4.553-1.685-4.553-5.226c0-1.346,0.254-2.78,1.352-3.704c0.675-0.588,1.429-0.927,2.702-0.927
		c1.342,0,2.527,0.339,2.948,0.927c0.42,0.336,0.587,0.841,0.587,1.263c0,0.255,0,0.337,0.088,0.337
		c0.167,0,0.167-0.082,0.167-0.337c0.078-0.251,0-1.093,0.078-1.518c0-0.506,0.088-0.755,0.088-0.842
		c0-0.085-0.088-0.167-0.255-0.167c-0.42,0-0.842-0.166-1.429-0.166c-0.676-0.089-1.186-0.173-2.106-0.173
		c-2.104,0-3.545,0.506-4.553,1.518c-1.352,1.264-1.597,2.947-1.597,3.962c0,1.429,0.333,3.031,1.684,4.293
		C105.249,32.797,106.933,33.218,108.872,33.218L108.872,33.218z"/>
	<path fill-rule="evenodd" clip-rule="evenodd" fill="#FFFFFF" d="M115.364,28.836c0,1.353,0,2.531,0,3.12
		c-0.088,0.419-0.167,0.759-0.421,0.759c-0.166,0.082-0.342,0.082-0.587,0.082c-0.176,0-0.176,0-0.176,0.085
		c0,0.088,0.088,0.088,0.254,0.088c0.255,0,0.675,0,1.019,0c0.333,0.082,0.666,0.082,0.753,0.082c0.421,0,0.842,0,1.518,0
		c0.588,0,1.352,0.084,2.438,0.084c0.51,0,0.676,0,0.765-0.421c0.077-0.255,0.167-1.263,0.167-1.602c0-0.082,0-0.256-0.09-0.256
		c-0.077,0-0.166,0.089-0.166,0.256c-0.078,0.587-0.254,0.927-0.676,1.096c-0.332,0.166-0.921,0.166-1.263,0.166
		c-1.518,0-1.685-0.253-1.763-1.262c0-0.422,0-1.768,0-2.277v-1.092c0-0.088,0-0.17,0.078-0.17c0.342,0,1.773,0,2.026,0.082
		c0.5,0,0.756,0.254,0.844,0.51c0,0.166,0,0.421,0,0.505c0,0.081,0.078,0.165,0.167,0.165c0.088,0,0.088-0.165,0.088-0.249
		c0-0.088,0.079-0.677,0.079-1.013c0.088-0.672,0.167-0.926,0.167-1.008c0-0.089-0.079-0.089-0.167-0.089
		c-0.079,0-0.079,0.089-0.167,0.171c-0.167,0.166-0.421,0.254-0.754,0.254c-0.256,0-1.94,0-2.282,0c-0.078,0-0.078,0-0.078-0.17
		v-3.79c0-0.089,0.078-0.173,0.078-0.173c0.342,0,1.861,0.084,2.106,0.084c0.764,0.089,0.841,0.256,1.018,0.592
		c0,0.167,0.079,0.421,0.079,0.506c0,0.169,0,0.169,0.088,0.169c0.079,0,0.079-0.087,0.079-0.087c0-0.167,0.088-0.758,0.088-0.924
		c0-0.676,0.088-0.843,0.088-0.928c0-0.081,0-0.17-0.088-0.17c-0.088,0-0.088,0.089-0.167,0.089c-0.088,0-0.343,0-0.587,0.081
		c-0.254,0-3.203,0-3.624,0c-0.176,0-0.509,0-0.842-0.081c-0.431,0.081-0.852,0.081-1.185,0.081c-0.254,0-0.333,0-0.333,0.085
		c0,0.082,0.078,0.082,0.245,0.082c0.176,0,0.421,0,0.597,0.085c0.421,0.087,0.587,0.336,0.587,0.842c0,0.425,0,0.845,0,3.117
		V28.836L115.364,28.836z"/>
	<path fill-rule="evenodd" clip-rule="evenodd" fill="#FFFFFF" d="M125.049,25.048h0.088c0.255,0.248,1.851,2.021,3.457,3.623
		c1.43,1.518,3.368,3.369,4.21,4.211c0.167,0.17,0.344,0.336,0.51,0.336c0.078,0,0.167-0.082,0.167-0.421l0.166-9.185
		c0-0.759,0.088-1.092,0.51-1.179c0.166-0.085,0.254-0.085,0.421-0.085c0.166,0,0.254,0,0.254-0.082
		c0-0.085-0.088-0.085-0.342-0.085h-3.114c-0.166,0-0.343,0-0.343,0.085c0,0.082,0.088,0.082,0.253,0.082
		c0.167,0,0.51,0,0.766,0.085c0.333,0.17,0.42,0.42,0.499,1.351l0.088,6.487h-0.088c-0.166-0.255-2.184-2.361-3.114-3.286
		c-2.193-2.109-4.387-4.382-4.553-4.637c-0.255-0.248-0.334-0.421-0.5-0.421c-0.177,0-0.177,0.173-0.177,0.506l-0.166,8.513
		c0,1.263-0.078,1.685-0.421,1.769c-0.254,0.082-0.5,0.082-0.676,0.082c-0.167,0-0.244,0-0.244,0.085
		c0,0.088,0.166,0.088,0.333,0.088h3.369c0.166,0,0.342,0,0.342-0.088c0-0.085-0.089-0.085-0.256-0.085
		c-0.253,0-0.508,0-0.763-0.082c-0.255-0.166-0.499-0.506-0.499-1.602L125.049,25.048L125.049,25.048z"/>
	<path fill-rule="evenodd" clip-rule="evenodd" fill="#FFFFFF" d="M140.051,28.836c0,1.353,0,2.443-0.079,3.12
		c-0.087,0.419-0.176,0.675-0.431,0.759c-0.166,0.082-0.333,0.082-0.499,0.082c-0.167,0-0.254,0-0.254,0.085
		c0,0.088,0.087,0.088,0.254,0.088h4.123c0.089,0,0.255,0,0.255-0.088c0-0.085-0.08-0.085-0.255-0.085c-0.244,0-0.5,0-0.754-0.082
		c-0.421-0.084-0.51-0.34-0.587-0.759c0-0.677,0-1.768,0-3.12v-5.982l1.772,0.089c1.34,0,1.762,0.421,1.762,0.842v0.082
		c0,0.254,0.088,0.339,0.167,0.339c0.087,0,0.087-0.085,0.087-0.254c0-0.339,0.088-1.348,0.088-1.603c0-0.248,0-0.337-0.175-0.337
		c0,0-0.079,0.089-0.334,0.089s-0.509,0.081-1.009,0.081h-5.727c-0.423,0-1.021-0.081-1.44-0.081c-0.333,0-0.499-0.173-0.589-0.173
		c-0.077,0-0.167,0.084-0.167,0.254c0,0.085-0.342,1.431-0.342,1.603c0,0.167,0.089,0.249,0.177,0.249c0.079,0,0.079,0,0.165-0.167
		c0-0.082,0.09-0.254,0.257-0.503c0.166-0.338,0.499-0.421,1.341-0.421l2.193-0.089V28.836L140.051,28.836z"/>
	<path fill-rule="evenodd" clip-rule="evenodd" fill="#FFFFFF" d="M148.305,28.836c0,1.353,0,2.531,0,3.12
		c-0.077,0.419-0.165,0.759-0.42,0.759c-0.166,0.082-0.333,0.082-0.587,0.082c-0.167,0-0.167,0-0.167,0.085
		c0,0.088,0.088,0.088,0.255,0.088c0.333,0,0.676,0,1.009,0c0.333,0.082,0.675,0.082,0.753,0.082c0.422,0,0.93,0,1.519,0
		c0.597,0,1.351,0.084,2.447,0.084c0.589,0,0.675,0,0.755-0.421c0.087-0.255,0.176-1.263,0.176-1.602c0-0.082,0-0.256-0.089-0.256
		c-0.087,0-0.087,0.089-0.167,0.256c-0.086,0.587-0.253,0.927-0.596,1.096c-0.422,0.166-1.009,0.166-1.342,0.166
		c-1.518,0-1.685-0.253-1.773-1.262c0-0.422,0-1.768,0-2.277v-1.092c0-0.088,0.089-0.17,0.089-0.17c0.333,0,1.763,0,2.018,0.082
		c0.587,0,0.764,0.254,0.843,0.51c0,0.166,0,0.421,0,0.505c0,0.081,0.087,0.165,0.166,0.165c0.177,0,0.177-0.165,0.177-0.249
		c0-0.088,0-0.677,0-1.013c0.076-0.672,0.166-0.926,0.166-1.008c0-0.089-0.09-0.089-0.166-0.089c0,0-0.089,0.089-0.177,0.171
		c-0.166,0.166-0.333,0.254-0.666,0.254c-0.343,0-2.027,0-2.282,0c-0.078,0-0.167,0-0.167-0.17v-3.79
		c0-0.089,0.089-0.173,0.167-0.173c0.255,0,1.772,0.084,2.028,0.084c0.754,0.089,0.841,0.256,1.008,0.592
		c0.089,0.167,0.089,0.421,0.089,0.506c0,0.169,0,0.169,0.076,0.169c0.09,0,0.09-0.087,0.09-0.087
		c0.077-0.167,0.077-0.758,0.077-0.924c0.09-0.676,0.09-0.843,0.09-0.928c0-0.081,0-0.17-0.09-0.17c0,0-0.077,0.089-0.167,0.089
		c-0.076,0-0.332,0-0.586,0.081c-0.255,0-3.114,0-3.623,0c-0.167,0-0.509,0-0.842-0.081c-0.333,0.081-0.755,0.081-1.176,0.081
		c-0.254,0-0.343,0-0.343,0.085c0,0.082,0.089,0.082,0.255,0.082c0.167,0,0.421,0,0.588,0.085c0.421,0.087,0.586,0.336,0.586,0.842
		c0,0.425,0,0.845,0,3.117V28.836L148.305,28.836z"/>
	<path fill-rule="evenodd" clip-rule="evenodd" fill="#FFFFFF" d="M161.711,28.836c0,1.353,0,2.531-0.087,3.12
		c-0.089,0.419-0.167,0.759-0.422,0.759c-0.167,0.082-0.343,0.082-0.51,0.082c-0.253,0-0.253,0-0.253,0.085
		c0,0.088,0.086,0.088,0.253,0.088c0.343,0,0.676,0,1.019,0c0.334,0.082,0.667,0.082,0.842,0.082c0.333,0,0.843,0,1.343,0.084
		c0.597,0.082,1.185,0.082,1.685,0.082c2.702,0,4.22-1.009,4.886-1.684c0.764-0.843,1.518-2.188,1.518-4.044
		c0-1.768-0.676-2.948-1.343-3.706c-1.604-1.603-4.043-1.603-5.815-1.603h-4.3c-0.253,0-0.333,0-0.333,0.085
		c0,0.082,0.08,0.082,0.247,0.082c0.253,0,0.42,0,0.596,0.085c0.422,0.087,0.589,0.336,0.589,0.842
		c0.087,0.425,0.087,0.845,0.087,3.035V28.836L161.711,28.836z M163.396,26.145c0-1.182,0-2.444,0.079-2.953
		c0-0.166,0-0.249,0.166-0.249c0.088-0.089,0.598-0.173,0.931-0.173c1.096,0,2.78,0.173,4.132,1.518
		c0.588,0.589,1.43,1.769,1.43,3.623c0,1.518-0.333,2.781-1.264,3.624c-0.841,0.759-1.851,1.015-3.369,1.015
		c-1.096,0-1.683-0.256-1.859-0.593c-0.166-0.082-0.166-0.677-0.166-1.099c0-0.248-0.079-1.345-0.079-2.947V26.145L163.396,26.145z"
		/>
	<path fill-rule="evenodd" clip-rule="evenodd" fill="#FFFFFF" d="M175.273,28.836c0,1.353,0,2.531,0,3.12
		c-0.088,0.419-0.166,0.759-0.421,0.759c-0.166,0.082-0.343,0.082-0.587,0.082c-0.177,0-0.177,0-0.177,0.085
		c0,0.088,0.088,0.088,0.255,0.088c0.343,0,0.676,0,1.019,0c0.333,0.082,0.666,0.082,0.753,0.082c0.422,0,0.932,0,1.52,0
		c0.586,0,1.35,0.084,2.437,0.084c0.51,0,0.677,0,0.765-0.421c0.078-0.255,0.167-1.263,0.167-1.602c0-0.082,0-0.256-0.089-0.256
		c-0.078,0-0.078,0.089-0.166,0.256c-0.078,0.587-0.255,0.927-0.588,1.096c-0.422,0.166-1.009,0.166-1.351,0.166
		c-1.518,0-1.685-0.253-1.763-1.262c0-0.422,0-1.768,0-2.277v-1.092c0-0.088,0.078-0.17,0.078-0.17c0.344,0,1.772,0,2.026,0.082
		c0.587,0,0.754,0.254,0.843,0.51c0,0.166,0,0.421,0,0.505c0,0.081,0.077,0.165,0.166,0.165c0.167,0,0.167-0.165,0.167-0.249
		c0-0.088,0-0.677,0-1.013c0.087-0.672,0.166-0.926,0.166-1.008c0-0.089-0.079-0.089-0.166-0.089c0,0-0.079,0.089-0.167,0.171
		c-0.166,0.166-0.333,0.254-0.676,0.254c-0.333,0-2.016,0-2.272,0c-0.087,0-0.165,0-0.165-0.17v-3.79
		c0-0.089,0.078-0.173,0.165-0.173c0.257,0,1.772,0.084,2.019,0.084c0.764,0.089,0.841,0.256,1.018,0.592
		c0.079,0.167,0.079,0.421,0.079,0.506c0,0.169,0,0.169,0.087,0.169c0.079,0,0.079-0.087,0.079-0.087
		c0.088-0.167,0.088-0.758,0.088-0.924c0.089-0.676,0.089-0.843,0.089-0.928c0-0.081,0-0.17-0.089-0.17c0,0-0.088,0.089-0.167,0.089
		c-0.087,0-0.343,0-0.587,0.081c-0.254,0-3.124,0-3.623,0c-0.176,0-0.509,0-0.842-0.081c-0.343,0.081-0.765,0.081-1.186,0.081
		c-0.254,0-0.333,0-0.333,0.085c0,0.082,0.079,0.082,0.245,0.082c0.177,0,0.421,0,0.598,0.085c0.421,0.087,0.587,0.336,0.587,0.842
		c0,0.425,0,0.845,0,3.117V28.836L175.273,28.836z"/>
	<path fill-rule="evenodd" clip-rule="evenodd" fill="#FFFFFF" d="M188.758,28.925c0,1.264,0,2.442-0.089,3.031
		c-0.087,0.419-0.166,0.675-0.42,0.759c-0.166,0.082-0.332,0.082-0.509,0.082c-0.167,0-0.246,0-0.246,0.085
		c0,0.088,0.079,0.088,0.333,0.088h3.878c0.167,0,0.333,0,0.333-0.088c0-0.085-0.078-0.085-0.255-0.085
		c-0.244,0-0.587,0-0.754-0.082c-0.421-0.084-0.508-0.34-0.587-0.759c-0.088-0.589-0.088-1.768-0.088-3.031v-5.815
		c0-0.167,0.088-0.256,0.167-0.256c0.087-0.084,0.342-0.084,0.597-0.084c0.333,0,0.92,0.084,1.43,0.594
		c0.842,0.67,0.842,1.685,0.842,2.188c0,1.435-1.097,2.359-1.938,2.359c-0.333,0-0.422,0.085-0.422,0.167
		c0,0.089,0.089,0.089,0.167,0.173c0.089,0,0.255,0,0.343,0c2.017,0,3.534-1.436,3.534-3.541c0-0.758-0.419-1.434-0.752-1.767
		c-0.178-0.255-0.844-0.761-2.703-0.761h-4.045c-0.166,0-0.255,0-0.255,0.085c0,0.082,0.089,0.082,0.176,0.082
		c0.246,0,0.499,0,0.589,0.085c0.499,0.087,0.586,0.336,0.586,0.842c0.089,0.425,0.089,0.845,0.089,3.117V28.925L188.758,28.925z"/>
	<path fill-rule="evenodd" clip-rule="evenodd" fill="#FFFFFF" d="M201.898,29.346c0.089,0,0.167,0,0.167,0.082l1.186,3.032
		c0,0.171-0.088,0.255-0.177,0.337c-0.167,0-0.167,0-0.167,0.085c0,0.088,0.167,0.088,0.421,0.088c1.098,0,2.193,0,2.703,0
		c0.5,0,0.665,0,0.665-0.088c0-0.085-0.077-0.085-0.165-0.085c-0.167,0-0.421,0-0.588-0.082c-0.333-0.084-0.755-0.255-1.263-1.602
		c-0.931-2.106-3.29-7.922-3.624-8.68c-0.166-0.333-0.254-0.506-0.333-0.506c-0.176,0-0.254,0.173-0.42,0.593l-3.624,8.932
		c-0.255,0.757-0.597,1.179-1.185,1.345c-0.166,0-0.333,0-0.508,0c-0.08,0-0.167,0-0.167,0.085c0,0.088,0.087,0.088,0.253,0.088
		h3.291c0.166,0,0.245,0,0.245-0.088c0-0.085-0.079-0.085-0.245-0.085h-0.177c-0.498,0-0.587-0.166-0.587-0.422
		c0-0.253,0.089-0.586,0.166-0.923l0.843-2.024c0-0.082,0-0.082,0.088-0.082H201.898L201.898,29.346z M198.952,28.671
		c0,0,0,0,0-0.084l1.352-3.539c0-0.085,0-0.172,0.077-0.172c0,0,0,0.087,0,0.172l1.352,3.539c0,0.084,0,0.084-0.088,0.084H198.952
		L198.952,28.671z"/>
	<path fill-rule="evenodd" clip-rule="evenodd" fill="#FFFFFF" d="M207.628,28.417c0,2.107,0.51,3.117,1.185,3.792
		c1.009,1.009,2.438,1.009,3.202,1.009c0.921,0,2.018-0.166,3.026-1.009c1.185-1.096,1.352-2.781,1.352-4.381v-1.518
		c0-2.19,0-2.61,0-3.035c0-0.506,0.166-0.755,0.508-0.842c0.167-0.085,0.245-0.085,0.422-0.085c0.167,0,0.254,0,0.254-0.082
		c0-0.085-0.087-0.085-0.254-0.085h-3.29c-0.167,0-0.333,0-0.333,0.085c0,0.082,0.077,0.082,0.254,0.082c0.167,0,0.422,0,0.5,0.085
		c0.508,0.087,0.675,0.336,0.675,0.842c0,0.425,0,0.845,0,3.035v1.767c0,1.518,0,2.78-0.842,3.623
		c-0.587,0.593-1.351,0.76-1.938,0.76c-0.509,0-1.176-0.085-1.852-0.586c-0.675-0.595-1.096-1.436-1.096-3.542v-2.021
		c0-2.19,0-2.61,0-3.035c0-0.506,0.167-0.755,0.5-0.842c0.175-0.085,0.253-0.085,0.43-0.085c0.166,0,0.245,0,0.245-0.082
		c0-0.085-0.079-0.085-0.333-0.085h-3.79c-0.175,0-0.342,0-0.342,0.085c0,0.082,0.088,0.082,0.254,0.082c0.255,0,0.51,0,0.588,0.085
		c0.509,0.087,0.598,0.336,0.598,0.842c0.078,0.425,0.078,0.845,0.078,3.035V28.417L207.628,28.417z"/>
	<path fill-rule="evenodd" clip-rule="evenodd" fill="#FFFFFF" d="M222.208,26.311c0-2.19,0-2.61,0.079-3.035
		c0-0.506,0.088-0.755,0.509-0.842c0.167-0.085,0.421-0.085,0.588-0.085c0.166,0,0.254,0,0.254-0.082
		c0-0.085-0.088-0.085-0.332-0.085h-3.879c-0.254,0-0.343,0-0.343,0.085c0,0.082,0.089,0.082,0.256,0.082
		c0.166,0,0.343,0,0.509,0.085c0.421,0.087,0.588,0.336,0.588,0.842c0,0.425,0,0.845,0,3.035v2.614c0,1.264,0,2.442,0,3.031
		c-0.089,0.419-0.167,0.759-0.421,0.759c-0.167,0.082-0.333,0.082-0.589,0.082c-0.166,0-0.166,0-0.166,0.085
		c0,0.088,0.079,0.088,0.245,0.088c0.343,0,0.676,0,1.019,0c0.333,0.082,0.676,0.082,0.755,0.082c0.587,0,1.096,0,1.771,0
		c0.675,0,1.43,0.084,2.438,0.084c0.765,0,0.843-0.084,0.932-0.421c0.088-0.34,0.166-1.436,0.166-1.602c0-0.167,0-0.256-0.078-0.256
		c-0.088,0-0.177,0.089-0.177,0.174c0,0.336-0.167,0.758-0.333,0.925c-0.421,0.419-0.93,0.419-1.685,0.419
		c-1.184,0-1.518-0.166-1.772-0.335c-0.333-0.251-0.333-1.265-0.333-3.115V26.311L222.208,26.311z"/>
	<path fill-rule="evenodd" clip-rule="evenodd" fill="#FFFFFF" d="M233.5,33.218c3.622,0,5.894-2.526,5.894-5.895
		c0-3.29-2.192-5.396-5.727-5.396c-4.379,0-5.985,3.202-5.985,5.646C227.682,30.188,229.367,33.218,233.5,33.218L233.5,33.218z
		 M234.086,32.549c-2.78,0-4.376-2.36-4.376-5.396c0-3.622,1.851-4.549,3.535-4.549c2.358,0,4.21,2.023,4.21,5.307
		C237.455,32.04,235.096,32.549,234.086,32.549L234.086,32.549z"/>
</g>
<path fill-rule="evenodd" clip-rule="evenodd" fill="#FFFFFF" d="M0,21.001C0,9.381,9.376,0,21,0
	c11.615,0,21.001,9.381,21.001,21.001C42.001,32.621,32.615,42,21,42C9.376,42,0,32.621,0,21.001z"/>
<path fill-rule="evenodd" clip-rule="evenodd" fill="#D80E2F" d="M7.856,21c0,2.03,0.454,3.906,1.274,5.634h6.232v6.231
	c1.728,0.824,3.605,1.277,5.638,1.277c2.025,0,3.901-0.453,5.629-1.277v-6.231h6.231c0.83-1.729,1.283-3.604,1.283-5.634
	c0-2.029-0.454-3.906-1.283-5.634H26.63V9.135C24.902,8.311,23.025,7.856,21,7.856c-2.033,0-3.91,0.454-5.638,1.279v6.231H9.13
	C8.31,17.095,7.856,18.971,7.856,21z M21,25.582l5.778-5.782c0.454,0.301,0.908,0.751,1.353,1.274L21,28.209l-7.139-7.134
	l1.205-1.274L21,25.582z M21,19.648l3.229-3.155l1.196,1.204L21,22.279l-4.434-4.434c0.305-0.449,0.75-0.899,1.205-1.353L21,19.648z
	 M6.05,21C6.05,12.74,12.735,6.054,21,6.054c8.256,0,14.942,6.686,14.942,14.946c0,8.261-6.686,14.947-14.942,14.947
	C12.735,35.947,6.05,29.262,6.05,21z M2,21C2,10.488,10.484,2,21,2c10.508,0,19,8.488,19,19c0,10.513-8.492,19-19,19
	C10.484,40,2,31.514,2,21z"/>
<g id="Camada_x5F_1">
</g>
</svg>
